<?xml version="1.0" encoding="UTF-8" standalone="no"?>
<!DOCTYPE svg PUBLIC "-//W3C//DTD SVG 1.1//EN"
 "http://www.w3.org/Graphics/SVG/1.1/DTD/svg11.dtd">
<!-- Generated by graphviz version 2.47.0 (20210316.0004)
 -->
<!-- Title: dependencies Pages: 1 -->
<svg width="504pt" height="284pt"
 viewBox="0.00 0.00 504.00 284.00" xmlns="http://www.w3.org/2000/svg" xmlns:xlink="http://www.w3.org/1999/xlink">
<g id="graph0" class="graph" transform="scale(1 1) rotate(0) translate(4 280)">
<title>dependencies</title>
<polygon fill="white" stroke="transparent" points="-4,4 -4,-280 500,-280 500,4 -4,4"/>
<text text-anchor="start" x="227.01" y="-42.4" font-family="Times-12" font-weight="bold" font-size="14.00">Legend</text>
<polygon fill="#ffffb3" stroke="transparent" points="14,-10 14,-30 34,-30 34,-10 14,-10"/>
<text text-anchor="start" x="37.63" y="-15.4" font-family="Times-12" font-size="14.00"> &#160;Declarations</text>
<polygon fill="#8dd3c7" stroke="transparent" points="127,-10 127,-30 147,-30 147,-10 127,-10"/>
<text text-anchor="start" x="150.73" y="-15.4" font-family="Times-12" font-size="14.00"> &#160;Module</text>
<polygon fill="#80b1d3" stroke="transparent" points="213,-10 213,-30 233,-30 233,-10 213,-10"/>
<text text-anchor="start" x="236.78" y="-15.4" font-family="Times-12" font-size="14.00"> &#160;Bootstrap</text>
<polygon fill="#fdb462" stroke="transparent" points="310,-10 310,-30 330,-30 330,-10 310,-10"/>
<text text-anchor="start" x="333.67" y="-15.4" font-family="Times-12" font-size="14.00"> &#160;Providers</text>
<polygon fill="#fb8072" stroke="transparent" points="406,-10 406,-30 426,-30 426,-10 406,-10"/>
<text text-anchor="start" x="429.73" y="-15.4" font-family="Times-12" font-size="14.00"> &#160;Exports</text>
<g id="clust1" class="cluster">
<title>cluster_UsersModule</title>
<polygon fill="none" stroke="black" stroke-dasharray="1,5" points="47.5,-70 47.5,-268 448.5,-268 448.5,-70 47.5,-70"/>
</g>
<g id="clust4" class="cluster">
<title>cluster_UsersModule_exports</title>
<polygon fill="none" stroke="black" points="83.5,-208 83.5,-260 379.5,-260 379.5,-208 83.5,-208"/>
</g>
<g id="clust6" class="cluster">
<title>cluster_UsersModule_providers</title>
<polygon fill="none" stroke="black" points="55.5,-78 55.5,-130 440.5,-130 440.5,-78 55.5,-78"/>
</g>
<!-- UsersServiceAdmin  -->
<g id="node1" class="node">
<title>UsersServiceAdmin </title>
<polygon fill="#fb8072" stroke="black" points="371.74,-252 239.26,-252 239.26,-216 371.74,-216 371.74,-252"/>
<text text-anchor="middle" x="305.5" y="-229.8" font-family="Times,serif" font-size="14.00">UsersServiceAdmin </text>
</g>
<!-- UsersServicePublic  -->
<g id="node2" class="node">
<title>UsersServicePublic </title>
<polygon fill="#fb8072" stroke="black" points="221.13,-252 91.87,-252 91.87,-216 221.13,-216 221.13,-252"/>
<text text-anchor="middle" x="156.5" y="-229.8" font-family="Times,serif" font-size="14.00">UsersServicePublic </text>
</g>
<!-- UsersModule -->
<g id="node3" class="node">
<title>UsersModule</title>
<polygon fill="#8dd3c7" stroke="black" points="229.42,-187 226.42,-191 205.42,-191 202.42,-187 137.58,-187 137.58,-151 229.42,-151 229.42,-187"/>
<text text-anchor="middle" x="183.5" y="-164.8" font-family="Times,serif" font-size="14.00">UsersModule</text>
</g>
<!-- UsersModule&#45;&gt;UsersServiceAdmin  -->
<g id="edge1" class="edge">
<title>UsersModule&#45;&gt;UsersServiceAdmin </title>
<path fill="none" stroke="black" stroke-dasharray="5,2" d="M225.14,-187.11C225.14,-206.34 225.14,-234 225.14,-234 225.14,-234 229.14,-234 229.14,-234"/>
<polygon fill="black" stroke="black" points="229.14,-237.5 239.14,-234 229.14,-230.5 229.14,-237.5"/>
</g>
<!-- UsersModule&#45;&gt;UsersServicePublic  -->
<g id="edge2" class="edge">
<title>UsersModule&#45;&gt;UsersServicePublic </title>
<path fill="none" stroke="black" stroke-dasharray="5,2" d="M179.43,-187.11C179.43,-187.11 179.43,-205.99 179.43,-205.99"/>
<polygon fill="black" stroke="black" points="175.93,-205.99 179.43,-215.99 182.93,-205.99 175.93,-205.99"/>
</g>
<!-- UsersServiceAdmin -->
<g id="node4" class="node">
<title>UsersServiceAdmin</title>
<ellipse fill="#fdb462" stroke="black" cx="343.5" cy="-104" rx="88.6" ry="18"/>
<text text-anchor="middle" x="343.5" y="-99.8" font-family="Times,serif" font-size="14.00">UsersServiceAdmin</text>
</g>
<!-- UsersServiceAdmin&#45;&gt;UsersModule -->
<g id="edge3" class="edge">
<title>UsersServiceAdmin&#45;&gt;UsersModule</title>
<path fill="none" stroke="black" d="M313.16,-121.08C313.16,-140.34 313.16,-169 313.16,-169 313.16,-169 239.21,-169 239.21,-169"/>
<polygon fill="black" stroke="black" points="239.21,-165.5 229.21,-169 239.21,-172.5 239.21,-165.5"/>
</g>
<!-- UsersServicePublic -->
<g id="node5" class="node">
<title>UsersServicePublic</title>
<ellipse fill="#fdb462" stroke="black" cx="150.5" cy="-104" rx="86.81" ry="18"/>
<text text-anchor="middle" x="150.5" y="-99.8" font-family="Times,serif" font-size="14.00">UsersServicePublic</text>
</g>
<!-- UsersServicePublic&#45;&gt;UsersModule -->
<g id="edge4" class="edge">
<title>UsersServicePublic&#45;&gt;UsersModule</title>
<path fill="none" stroke="black" d="M183.5,-120.74C183.5,-120.74 183.5,-140.72 183.5,-140.72"/>
<polygon fill="black" stroke="black" points="180,-140.72 183.5,-150.72 187,-140.72 180,-140.72"/>
</g>
</g>
</svg>
