<?xml version="1.0" encoding="UTF-8" standalone="no"?>
<!DOCTYPE svg PUBLIC "-//W3C//DTD SVG 1.1//EN"
 "http://www.w3.org/Graphics/SVG/1.1/DTD/svg11.dtd">
<!-- Generated by graphviz version 2.47.0 (20210316.0004)
 -->
<!-- Title: dependencies Pages: 1 -->
<svg width="504pt" height="211pt"
 viewBox="0.00 0.00 504.00 211.00" xmlns="http://www.w3.org/2000/svg" xmlns:xlink="http://www.w3.org/1999/xlink">
<g id="graph0" class="graph" transform="scale(1 1) rotate(0) translate(4 207)">
<title>dependencies</title>
<polygon fill="white" stroke="transparent" points="-4,4 -4,-207 500,-207 500,4 -4,4"/>
<text text-anchor="start" x="227.01" y="-42.4" font-family="Times-12" font-weight="bold" font-size="14.00">Legend</text>
<polygon fill="#ffffb3" stroke="transparent" points="14,-10 14,-30 34,-30 34,-10 14,-10"/>
<text text-anchor="start" x="37.63" y="-15.4" font-family="Times-12" font-size="14.00"> &#160;Declarations</text>
<polygon fill="#8dd3c7" stroke="transparent" points="127,-10 127,-30 147,-30 147,-10 127,-10"/>
<text text-anchor="start" x="150.73" y="-15.4" font-family="Times-12" font-size="14.00"> &#160;Module</text>
<polygon fill="#80b1d3" stroke="transparent" points="213,-10 213,-30 233,-30 233,-10 213,-10"/>
<text text-anchor="start" x="236.78" y="-15.4" font-family="Times-12" font-size="14.00"> &#160;Bootstrap</text>
<polygon fill="#fdb462" stroke="transparent" points="310,-10 310,-30 330,-30 330,-10 310,-10"/>
<text text-anchor="start" x="333.67" y="-15.4" font-family="Times-12" font-size="14.00"> &#160;Providers</text>
<polygon fill="#fb8072" stroke="transparent" points="406,-10 406,-30 426,-30 426,-10 406,-10"/>
<text text-anchor="start" x="429.73" y="-15.4" font-family="Times-12" font-size="14.00"> &#160;Exports</text>
<g id="clust1" class="cluster">
<title>cluster_RouterModule</title>
<polygon fill="none" stroke="black" stroke-dasharray="1,5" points="38,-70 38,-195 458,-195 458,-70 38,-70"/>
</g>
<g id="clust3" class="cluster">
<title>cluster_RouterModule_imports</title>
<polygon fill="none" stroke="black" points="46,-78 46,-130 450,-130 450,-78 46,-78"/>
</g>
<!-- AdminRouteModules -->
<g id="node1" class="node">
<title>AdminRouteModules</title>
<polygon fill="#8dd3c7" stroke="black" points="441.82,-122 438.82,-126 417.82,-126 414.82,-122 304.18,-122 304.18,-86 441.82,-86 441.82,-122"/>
<text text-anchor="middle" x="373" y="-99.8" font-family="Times,serif" font-size="14.00">AdminRouteModules</text>
</g>
<!-- RouterModule -->
<g id="node4" class="node">
<title>RouterModule</title>
<polygon fill="#8dd3c7" stroke="black" points="294.65,-187 291.65,-191 270.65,-191 267.65,-187 197.35,-187 197.35,-151 294.65,-151 294.65,-187"/>
<text text-anchor="middle" x="246" y="-164.8" font-family="Times,serif" font-size="14.00">RouterModule</text>
</g>
<!-- AdminRouteModules&#45;&gt;RouterModule -->
<g id="edge1" class="edge">
<title>AdminRouteModules&#45;&gt;RouterModule</title>
<path fill="none" stroke="black" d="M304,-104C295.85,-104 290.35,-104 290.35,-104 290.35,-104 290.35,-140.89 290.35,-140.89"/>
<polygon fill="black" stroke="black" points="286.85,-140.89 290.35,-150.89 293.85,-140.89 286.85,-140.89"/>
</g>
<!-- NestRouter -->
<g id="node2" class="node">
<title>NestRouter</title>
<polygon fill="#8dd3c7" stroke="black" points="285.76,-122 282.76,-126 261.76,-126 258.76,-122 206.24,-122 206.24,-86 285.76,-86 285.76,-122"/>
<text text-anchor="middle" x="246" y="-99.8" font-family="Times,serif" font-size="14.00">NestRouter</text>
</g>
<!-- NestRouter&#45;&gt;RouterModule -->
<g id="edge2" class="edge">
<title>NestRouter&#45;&gt;RouterModule</title>
<path fill="none" stroke="black" d="M246,-122.11C246,-122.11 246,-140.99 246,-140.99"/>
<polygon fill="black" stroke="black" points="242.5,-140.99 246,-150.99 249.5,-140.99 242.5,-140.99"/>
</g>
<!-- PublicRouteModules -->
<g id="node3" class="node">
<title>PublicRouteModules</title>
<polygon fill="#8dd3c7" stroke="black" points="188.21,-122 185.21,-126 164.21,-126 161.21,-122 53.79,-122 53.79,-86 188.21,-86 188.21,-122"/>
<text text-anchor="middle" x="121" y="-99.8" font-family="Times,serif" font-size="14.00">PublicRouteModules</text>
</g>
<!-- PublicRouteModules&#45;&gt;RouterModule -->
<g id="edge3" class="edge">
<title>PublicRouteModules&#45;&gt;RouterModule</title>
<path fill="none" stroke="black" d="M188.33,-104C196.29,-104 201.65,-104 201.65,-104 201.65,-104 201.65,-140.89 201.65,-140.89"/>
<polygon fill="black" stroke="black" points="198.15,-140.89 201.65,-150.89 205.15,-140.89 198.15,-140.89"/>
</g>
</g>
</svg>
