<?xml version="1.0" encoding="UTF-8" standalone="no"?>
<!DOCTYPE svg PUBLIC "-//W3C//DTD SVG 1.1//EN"
 "http://www.w3.org/Graphics/SVG/1.1/DTD/svg11.dtd">
<!-- Generated by graphviz version 2.47.0 (20210316.0004)
 -->
<!-- Title: dependencies Pages: 1 -->
<svg width="652pt" height="284pt"
 viewBox="0.00 0.00 652.00 284.00" xmlns="http://www.w3.org/2000/svg" xmlns:xlink="http://www.w3.org/1999/xlink">
<g id="graph0" class="graph" transform="scale(1 1) rotate(0) translate(4 280)">
<title>dependencies</title>
<polygon fill="white" stroke="transparent" points="-4,4 -4,-280 648,-280 648,4 -4,4"/>
<text text-anchor="start" x="301.01" y="-42.4" font-family="Times-12" font-weight="bold" font-size="14.00">Legend</text>
<polygon fill="#ffffb3" stroke="transparent" points="88,-10 88,-30 108,-30 108,-10 88,-10"/>
<text text-anchor="start" x="111.63" y="-15.4" font-family="Times-12" font-size="14.00"> &#160;Declarations</text>
<polygon fill="#8dd3c7" stroke="transparent" points="201,-10 201,-30 221,-30 221,-10 201,-10"/>
<text text-anchor="start" x="224.73" y="-15.4" font-family="Times-12" font-size="14.00"> &#160;Module</text>
<polygon fill="#80b1d3" stroke="transparent" points="287,-10 287,-30 307,-30 307,-10 287,-10"/>
<text text-anchor="start" x="310.78" y="-15.4" font-family="Times-12" font-size="14.00"> &#160;Bootstrap</text>
<polygon fill="#fdb462" stroke="transparent" points="384,-10 384,-30 404,-30 404,-10 384,-10"/>
<text text-anchor="start" x="407.67" y="-15.4" font-family="Times-12" font-size="14.00"> &#160;Providers</text>
<polygon fill="#fb8072" stroke="transparent" points="480,-10 480,-30 500,-30 500,-10 480,-10"/>
<text text-anchor="start" x="503.73" y="-15.4" font-family="Times-12" font-size="14.00"> &#160;Exports</text>
<g id="clust1" class="cluster">
<title>cluster_AuthModule</title>
<polygon fill="none" stroke="black" stroke-dasharray="1,5" points="8,-70 8,-268 636,-268 636,-70 8,-70"/>
</g>
<g id="clust6" class="cluster">
<title>cluster_AuthModule_providers</title>
<polygon fill="none" stroke="black" points="254,-78 254,-130 628,-130 628,-78 254,-78"/>
</g>
<g id="clust4" class="cluster">
<title>cluster_AuthModule_exports</title>
<polygon fill="none" stroke="black" points="123,-208 123,-260 411,-260 411,-208 123,-208"/>
</g>
<g id="clust3" class="cluster">
<title>cluster_AuthModule_imports</title>
<polygon fill="none" stroke="black" points="16,-78 16,-130 246,-130 246,-78 16,-78"/>
</g>
<!-- AdminsModule -->
<g id="node1" class="node">
<title>AdminsModule</title>
<polygon fill="#8dd3c7" stroke="black" points="237.88,-122 234.88,-126 213.88,-126 210.88,-122 134.12,-122 134.12,-86 237.88,-86 237.88,-122"/>
<text text-anchor="middle" x="186" y="-99.8" font-family="Times,serif" font-size="14.00">AdminsModule</text>
</g>
<!-- AuthModule -->
<g id="node3" class="node">
<title>AuthModule</title>
<polygon fill="#8dd3c7" stroke="black" points="309.55,-187 306.55,-191 285.55,-191 282.55,-187 222.45,-187 222.45,-151 309.55,-151 309.55,-187"/>
<text text-anchor="middle" x="266" y="-164.8" font-family="Times,serif" font-size="14.00">AuthModule</text>
</g>
<!-- AdminsModule&#45;&gt;AuthModule -->
<g id="edge1" class="edge">
<title>AdminsModule&#45;&gt;AuthModule</title>
<path fill="none" stroke="black" d="M230.08,-122.11C230.08,-122.11 230.08,-140.99 230.08,-140.99"/>
<polygon fill="black" stroke="black" points="226.58,-140.99 230.08,-150.99 233.58,-140.99 226.58,-140.99"/>
</g>
<!-- UsersModule -->
<g id="node2" class="node">
<title>UsersModule</title>
<polygon fill="#8dd3c7" stroke="black" points="115.92,-122 112.92,-126 91.92,-126 88.92,-122 24.08,-122 24.08,-86 115.92,-86 115.92,-122"/>
<text text-anchor="middle" x="70" y="-99.8" font-family="Times,serif" font-size="14.00">UsersModule</text>
</g>
<!-- UsersModule&#45;&gt;AuthModule -->
<g id="edge2" class="edge">
<title>UsersModule&#45;&gt;AuthModule</title>
<path fill="none" stroke="black" d="M70,-122.11C70,-141.34 70,-169 70,-169 70,-169 212.01,-169 212.01,-169"/>
<polygon fill="black" stroke="black" points="212.01,-172.5 222.01,-169 212.01,-165.5 212.01,-172.5"/>
</g>
<!-- AuthServiceAdmin  -->
<g id="node4" class="node">
<title>AuthServiceAdmin </title>
<polygon fill="#fb8072" stroke="black" points="403.36,-252 274.64,-252 274.64,-216 403.36,-216 403.36,-252"/>
<text text-anchor="middle" x="339" y="-229.8" font-family="Times,serif" font-size="14.00">AuthServiceAdmin </text>
</g>
<!-- AuthModule&#45;&gt;AuthServiceAdmin  -->
<g id="edge3" class="edge">
<title>AuthModule&#45;&gt;AuthServiceAdmin </title>
<path fill="none" stroke="black" stroke-dasharray="5,2" d="M292.3,-187.11C292.3,-187.11 292.3,-205.99 292.3,-205.99"/>
<polygon fill="black" stroke="black" points="288.8,-205.99 292.3,-215.99 295.8,-205.99 288.8,-205.99"/>
</g>
<!-- AuthServicePublic  -->
<g id="node5" class="node">
<title>AuthServicePublic </title>
<polygon fill="#fb8072" stroke="black" points="256.75,-252 131.25,-252 131.25,-216 256.75,-216 256.75,-252"/>
<text text-anchor="middle" x="194" y="-229.8" font-family="Times,serif" font-size="14.00">AuthServicePublic </text>
</g>
<!-- AuthModule&#45;&gt;AuthServicePublic  -->
<g id="edge4" class="edge">
<title>AuthModule&#45;&gt;AuthServicePublic </title>
<path fill="none" stroke="black" stroke-dasharray="5,2" d="M239.43,-187.11C239.43,-187.11 239.43,-205.99 239.43,-205.99"/>
<polygon fill="black" stroke="black" points="235.93,-205.99 239.43,-215.99 242.93,-205.99 235.93,-205.99"/>
</g>
<!-- AuthServiceAdmin -->
<g id="node6" class="node">
<title>AuthServiceAdmin</title>
<ellipse fill="#fdb462" stroke="black" cx="534" cy="-104" rx="86.26" ry="18"/>
<text text-anchor="middle" x="534" y="-99.8" font-family="Times,serif" font-size="14.00">AuthServiceAdmin</text>
</g>
<!-- AuthServiceAdmin&#45;&gt;AuthModule -->
<g id="edge5" class="edge">
<title>AuthServiceAdmin&#45;&gt;AuthModule</title>
<path fill="none" stroke="black" d="M534,-122.11C534,-141.34 534,-169 534,-169 534,-169 319.66,-169 319.66,-169"/>
<polygon fill="black" stroke="black" points="319.66,-165.5 309.66,-169 319.66,-172.5 319.66,-165.5"/>
</g>
<!-- AuthServicePublic -->
<g id="node7" class="node">
<title>AuthServicePublic</title>
<ellipse fill="#fdb462" stroke="black" cx="346" cy="-104" rx="83.97" ry="18"/>
<text text-anchor="middle" x="346" y="-99.8" font-family="Times,serif" font-size="14.00">AuthServicePublic</text>
</g>
<!-- AuthServicePublic&#45;&gt;AuthModule -->
<g id="edge6" class="edge">
<title>AuthServicePublic&#45;&gt;AuthModule</title>
<path fill="none" stroke="black" d="M285.9,-116.84C285.9,-116.84 285.9,-140.52 285.9,-140.52"/>
<polygon fill="black" stroke="black" points="282.4,-140.52 285.9,-150.52 289.4,-140.52 282.4,-140.52"/>
</g>
</g>
</svg>
