<?xml version="1.0" encoding="UTF-8" standalone="no"?>
<!DOCTYPE svg PUBLIC "-//W3C//DTD SVG 1.1//EN"
 "http://www.w3.org/Graphics/SVG/1.1/DTD/svg11.dtd">
<!-- Generated by graphviz version 2.47.0 (20210316.0004)
 -->
<!-- Title: dependencies Pages: 1 -->
<svg width="652pt" height="284pt"
 viewBox="0.00 0.00 652.00 284.00" xmlns="http://www.w3.org/2000/svg" xmlns:xlink="http://www.w3.org/1999/xlink">
<g id="graph0" class="graph" transform="scale(1 1) rotate(0) translate(4 280)">
<title>dependencies</title>
<polygon fill="white" stroke="transparent" points="-4,4 -4,-280 648,-280 648,4 -4,4"/>
<text text-anchor="start" x="301.01" y="-42.4" font-family="Times-12" font-weight="bold" font-size="14.00">Legend</text>
<polygon fill="#ffffb3" stroke="transparent" points="88,-10 88,-30 108,-30 108,-10 88,-10"/>
<text text-anchor="start" x="111.63" y="-15.4" font-family="Times-12" font-size="14.00"> &#160;Declarations</text>
<polygon fill="#8dd3c7" stroke="transparent" points="201,-10 201,-30 221,-30 221,-10 201,-10"/>
<text text-anchor="start" x="224.73" y="-15.4" font-family="Times-12" font-size="14.00"> &#160;Module</text>
<polygon fill="#80b1d3" stroke="transparent" points="287,-10 287,-30 307,-30 307,-10 287,-10"/>
<text text-anchor="start" x="310.78" y="-15.4" font-family="Times-12" font-size="14.00"> &#160;Bootstrap</text>
<polygon fill="#fdb462" stroke="transparent" points="384,-10 384,-30 404,-30 404,-10 384,-10"/>
<text text-anchor="start" x="407.67" y="-15.4" font-family="Times-12" font-size="14.00"> &#160;Providers</text>
<polygon fill="#fb8072" stroke="transparent" points="480,-10 480,-30 500,-30 500,-10 480,-10"/>
<text text-anchor="start" x="503.73" y="-15.4" font-family="Times-12" font-size="14.00"> &#160;Exports</text>
<g id="clust1" class="cluster">
<title>cluster_AuthModule</title>
<polygon fill="none" stroke="black" stroke-dasharray="1,5" points="8,-70 8,-268 636,-268 636,-70 8,-70"/>
</g>
<g id="clust3" class="cluster">
<title>cluster_AuthModule_imports</title>
<polygon fill="none" stroke="black" points="398,-78 398,-130 628,-130 628,-78 398,-78"/>
</g>
<g id="clust4" class="cluster">
<title>cluster_AuthModule_exports</title>
<polygon fill="none" stroke="black" points="210,-208 210,-260 498,-260 498,-208 210,-208"/>
</g>
<g id="clust6" class="cluster">
<title>cluster_AuthModule_providers</title>
<polygon fill="none" stroke="black" points="16,-78 16,-130 390,-130 390,-78 16,-78"/>
</g>
<!-- AdminsModule -->
<g id="node1" class="node">
<title>AdminsModule</title>
<polygon fill="#8dd3c7" stroke="black" points="619.88,-122 616.88,-126 595.88,-126 592.88,-122 516.12,-122 516.12,-86 619.88,-86 619.88,-122"/>
<text text-anchor="middle" x="568" y="-99.8" font-family="Times,serif" font-size="14.00">AdminsModule</text>
</g>
<!-- AuthModule -->
<g id="node3" class="node">
<title>AuthModule</title>
<polygon fill="#8dd3c7" stroke="black" points="396.55,-187 393.55,-191 372.55,-191 369.55,-187 309.45,-187 309.45,-151 396.55,-151 396.55,-187"/>
<text text-anchor="middle" x="353" y="-164.8" font-family="Times,serif" font-size="14.00">AuthModule</text>
</g>
<!-- AdminsModule&#45;&gt;AuthModule -->
<g id="edge1" class="edge">
<title>AdminsModule&#45;&gt;AuthModule</title>
<path fill="none" stroke="black" d="M568,-122.11C568,-141.34 568,-169 568,-169 568,-169 406.77,-169 406.77,-169"/>
<polygon fill="black" stroke="black" points="406.77,-165.5 396.77,-169 406.77,-172.5 406.77,-165.5"/>
</g>
<!-- UsersModule -->
<g id="node2" class="node">
<title>UsersModule</title>
<polygon fill="#8dd3c7" stroke="black" points="497.92,-122 494.92,-126 473.92,-126 470.92,-122 406.08,-122 406.08,-86 497.92,-86 497.92,-122"/>
<text text-anchor="middle" x="452" y="-99.8" font-family="Times,serif" font-size="14.00">UsersModule</text>
</g>
<!-- UsersModule&#45;&gt;AuthModule -->
<g id="edge2" class="edge">
<title>UsersModule&#45;&gt;AuthModule</title>
<path fill="none" stroke="black" d="M406.21,-104C396.67,-104 389.45,-104 389.45,-104 389.45,-104 389.45,-140.89 389.45,-140.89"/>
<polygon fill="black" stroke="black" points="385.95,-140.89 389.45,-150.89 392.95,-140.89 385.95,-140.89"/>
</g>
<!-- AuthServiceAdmin  -->
<g id="node4" class="node">
<title>AuthServiceAdmin </title>
<polygon fill="#fb8072" stroke="black" points="490.36,-252 361.64,-252 361.64,-216 490.36,-216 490.36,-252"/>
<text text-anchor="middle" x="426" y="-229.8" font-family="Times,serif" font-size="14.00">AuthServiceAdmin </text>
</g>
<!-- AuthModule&#45;&gt;AuthServiceAdmin  -->
<g id="edge3" class="edge">
<title>AuthModule&#45;&gt;AuthServiceAdmin </title>
<path fill="none" stroke="black" stroke-dasharray="5,2" d="M379.3,-187.11C379.3,-187.11 379.3,-205.99 379.3,-205.99"/>
<polygon fill="black" stroke="black" points="375.8,-205.99 379.3,-215.99 382.8,-205.99 375.8,-205.99"/>
</g>
<!-- AuthServicePublic  -->
<g id="node5" class="node">
<title>AuthServicePublic </title>
<polygon fill="#fb8072" stroke="black" points="343.75,-252 218.25,-252 218.25,-216 343.75,-216 343.75,-252"/>
<text text-anchor="middle" x="281" y="-229.8" font-family="Times,serif" font-size="14.00">AuthServicePublic </text>
</g>
<!-- AuthModule&#45;&gt;AuthServicePublic  -->
<g id="edge4" class="edge">
<title>AuthModule&#45;&gt;AuthServicePublic </title>
<path fill="none" stroke="black" stroke-dasharray="5,2" d="M326.43,-187.11C326.43,-187.11 326.43,-205.99 326.43,-205.99"/>
<polygon fill="black" stroke="black" points="322.93,-205.99 326.43,-215.99 329.93,-205.99 322.93,-205.99"/>
</g>
<!-- AuthServiceAdmin -->
<g id="node6" class="node">
<title>AuthServiceAdmin</title>
<ellipse fill="#fdb462" stroke="black" cx="296" cy="-104" rx="86.26" ry="18"/>
<text text-anchor="middle" x="296" y="-99.8" font-family="Times,serif" font-size="14.00">AuthServiceAdmin</text>
</g>
<!-- AuthServiceAdmin&#45;&gt;AuthModule -->
<g id="edge5" class="edge">
<title>AuthServiceAdmin&#45;&gt;AuthModule</title>
<path fill="none" stroke="black" d="M345.68,-118.75C345.68,-118.75 345.68,-140.59 345.68,-140.59"/>
<polygon fill="black" stroke="black" points="342.18,-140.59 345.68,-150.59 349.18,-140.59 342.18,-140.59"/>
</g>
<!-- AuthServicePublic -->
<g id="node7" class="node">
<title>AuthServicePublic</title>
<ellipse fill="#fdb462" stroke="black" cx="108" cy="-104" rx="83.97" ry="18"/>
<text text-anchor="middle" x="108" y="-99.8" font-family="Times,serif" font-size="14.00">AuthServicePublic</text>
</g>
<!-- AuthServicePublic&#45;&gt;AuthModule -->
<g id="edge6" class="edge">
<title>AuthServicePublic&#45;&gt;AuthModule</title>
<path fill="none" stroke="black" d="M108,-122.11C108,-141.34 108,-169 108,-169 108,-169 299.2,-169 299.2,-169"/>
<polygon fill="black" stroke="black" points="299.2,-172.5 309.2,-169 299.2,-165.5 299.2,-172.5"/>
</g>
</g>
</svg>
