<?xml version="1.0" encoding="UTF-8" standalone="no"?>
<!DOCTYPE svg PUBLIC "-//W3C//DTD SVG 1.1//EN"
 "http://www.w3.org/Graphics/SVG/1.1/DTD/svg11.dtd">
<!-- Generated by graphviz version 2.47.0 (20210316.0004)
 -->
<!-- Title: dependencies Pages: 1 -->
<svg width="504pt" height="284pt"
 viewBox="0.00 0.00 504.00 284.00" xmlns="http://www.w3.org/2000/svg" xmlns:xlink="http://www.w3.org/1999/xlink">
<g id="graph0" class="graph" transform="scale(1 1) rotate(0) translate(4 280)">
<title>dependencies</title>
<polygon fill="white" stroke="transparent" points="-4,4 -4,-280 500,-280 500,4 -4,4"/>
<text text-anchor="start" x="227.01" y="-42.4" font-family="Times-12" font-weight="bold" font-size="14.00">Legend</text>
<polygon fill="#ffffb3" stroke="transparent" points="14,-10 14,-30 34,-30 34,-10 14,-10"/>
<text text-anchor="start" x="37.63" y="-15.4" font-family="Times-12" font-size="14.00"> &#160;Declarations</text>
<polygon fill="#8dd3c7" stroke="transparent" points="127,-10 127,-30 147,-30 147,-10 127,-10"/>
<text text-anchor="start" x="150.73" y="-15.4" font-family="Times-12" font-size="14.00"> &#160;Module</text>
<polygon fill="#80b1d3" stroke="transparent" points="213,-10 213,-30 233,-30 233,-10 213,-10"/>
<text text-anchor="start" x="236.78" y="-15.4" font-family="Times-12" font-size="14.00"> &#160;Bootstrap</text>
<polygon fill="#fdb462" stroke="transparent" points="310,-10 310,-30 330,-30 330,-10 310,-10"/>
<text text-anchor="start" x="333.67" y="-15.4" font-family="Times-12" font-size="14.00"> &#160;Providers</text>
<polygon fill="#fb8072" stroke="transparent" points="406,-10 406,-30 426,-30 426,-10 406,-10"/>
<text text-anchor="start" x="429.73" y="-15.4" font-family="Times-12" font-size="14.00"> &#160;Exports</text>
<g id="clust1" class="cluster">
<title>cluster_TodosModule</title>
<polygon fill="none" stroke="black" stroke-dasharray="1,5" points="43,-70 43,-268 453,-268 453,-70 43,-70"/>
</g>
<g id="clust6" class="cluster">
<title>cluster_TodosModule_providers</title>
<polygon fill="none" stroke="black" points="51,-78 51,-130 445,-130 445,-78 51,-78"/>
</g>
<g id="clust4" class="cluster">
<title>cluster_TodosModule_exports</title>
<polygon fill="none" stroke="black" points="80,-208 80,-260 382,-260 382,-208 80,-208"/>
</g>
<!-- TodosServiceAdmin  -->
<g id="node1" class="node">
<title>TodosServiceAdmin </title>
<polygon fill="#fb8072" stroke="black" points="373.86,-252 238.14,-252 238.14,-216 373.86,-216 373.86,-252"/>
<text text-anchor="middle" x="306" y="-229.8" font-family="Times,serif" font-size="14.00">TodosServiceAdmin </text>
</g>
<!-- TodosServicePublic  -->
<g id="node2" class="node">
<title>TodosServicePublic </title>
<polygon fill="#fb8072" stroke="black" points="220.25,-252 87.75,-252 87.75,-216 220.25,-216 220.25,-252"/>
<text text-anchor="middle" x="154" y="-229.8" font-family="Times,serif" font-size="14.00">TodosServicePublic </text>
</g>
<!-- TodosModule -->
<g id="node3" class="node">
<title>TodosModule</title>
<polygon fill="#8dd3c7" stroke="black" points="229.05,-187 226.05,-191 205.05,-191 202.05,-187 134.95,-187 134.95,-151 229.05,-151 229.05,-187"/>
<text text-anchor="middle" x="182" y="-164.8" font-family="Times,serif" font-size="14.00">TodosModule</text>
</g>
<!-- TodosModule&#45;&gt;TodosServiceAdmin  -->
<g id="edge1" class="edge">
<title>TodosModule&#45;&gt;TodosServiceAdmin </title>
<path fill="none" stroke="black" stroke-dasharray="5,2" d="M224.7,-187.11C224.7,-206.34 224.7,-234 224.7,-234 224.7,-234 228.13,-234 228.13,-234"/>
<polygon fill="black" stroke="black" points="228.13,-237.5 238.13,-234 228.13,-230.5 228.13,-237.5"/>
</g>
<!-- TodosModule&#45;&gt;TodosServicePublic  -->
<g id="edge2" class="edge">
<title>TodosModule&#45;&gt;TodosServicePublic </title>
<path fill="none" stroke="black" stroke-dasharray="5,2" d="M177.43,-187.11C177.43,-187.11 177.43,-205.99 177.43,-205.99"/>
<polygon fill="black" stroke="black" points="173.93,-205.99 177.43,-215.99 180.93,-205.99 173.93,-205.99"/>
</g>
<!-- TodosServiceAdmin -->
<g id="node4" class="node">
<title>TodosServiceAdmin</title>
<ellipse fill="#fdb462" stroke="black" cx="346" cy="-104" rx="90.91" ry="18"/>
<text text-anchor="middle" x="346" y="-99.8" font-family="Times,serif" font-size="14.00">TodosServiceAdmin</text>
</g>
<!-- TodosServiceAdmin&#45;&gt;TodosModule -->
<g id="edge3" class="edge">
<title>TodosServiceAdmin&#45;&gt;TodosModule</title>
<path fill="none" stroke="black" d="M314.36,-121.08C314.36,-140.34 314.36,-169 314.36,-169 314.36,-169 239.41,-169 239.41,-169"/>
<polygon fill="black" stroke="black" points="239.41,-165.5 229.41,-169 239.41,-172.5 239.41,-165.5"/>
</g>
<!-- TodosServicePublic -->
<g id="node5" class="node">
<title>TodosServicePublic</title>
<ellipse fill="#fdb462" stroke="black" cx="148" cy="-104" rx="88.62" ry="18"/>
<text text-anchor="middle" x="148" y="-99.8" font-family="Times,serif" font-size="14.00">TodosServicePublic</text>
</g>
<!-- TodosServicePublic&#45;&gt;TodosModule -->
<g id="edge4" class="edge">
<title>TodosServicePublic&#45;&gt;TodosModule</title>
<path fill="none" stroke="black" d="M182,-120.74C182,-120.74 182,-140.72 182,-140.72"/>
<polygon fill="black" stroke="black" points="178.5,-140.72 182,-150.72 185.5,-140.72 178.5,-140.72"/>
</g>
</g>
</svg>
