<?xml version="1.0" encoding="UTF-8" standalone="no"?>
<!DOCTYPE svg PUBLIC "-//W3C//DTD SVG 1.1//EN"
 "http://www.w3.org/Graphics/SVG/1.1/DTD/svg11.dtd">
<!-- Generated by graphviz version 2.47.0 (20210316.0004)
 -->
<!-- Title: dependencies Pages: 1 -->
<svg width="554pt" height="211pt"
 viewBox="0.00 0.00 554.00 211.00" xmlns="http://www.w3.org/2000/svg" xmlns:xlink="http://www.w3.org/1999/xlink">
<g id="graph0" class="graph" transform="scale(1 1) rotate(0) translate(4 207)">
<title>dependencies</title>
<polygon fill="white" stroke="transparent" points="-4,4 -4,-207 550,-207 550,4 -4,4"/>
<text text-anchor="start" x="252.01" y="-42.4" font-family="Times-12" font-weight="bold" font-size="14.00">Legend</text>
<polygon fill="#ffffb3" stroke="transparent" points="39,-10 39,-30 59,-30 59,-10 39,-10"/>
<text text-anchor="start" x="62.63" y="-15.4" font-family="Times-12" font-size="14.00"> &#160;Declarations</text>
<polygon fill="#8dd3c7" stroke="transparent" points="152,-10 152,-30 172,-30 172,-10 152,-10"/>
<text text-anchor="start" x="175.73" y="-15.4" font-family="Times-12" font-size="14.00"> &#160;Module</text>
<polygon fill="#80b1d3" stroke="transparent" points="238,-10 238,-30 258,-30 258,-10 238,-10"/>
<text text-anchor="start" x="261.78" y="-15.4" font-family="Times-12" font-size="14.00"> &#160;Bootstrap</text>
<polygon fill="#fdb462" stroke="transparent" points="335,-10 335,-30 355,-30 355,-10 335,-10"/>
<text text-anchor="start" x="358.67" y="-15.4" font-family="Times-12" font-size="14.00"> &#160;Providers</text>
<polygon fill="#fb8072" stroke="transparent" points="431,-10 431,-30 451,-30 451,-10 431,-10"/>
<text text-anchor="start" x="454.73" y="-15.4" font-family="Times-12" font-size="14.00"> &#160;Exports</text>
<g id="clust1" class="cluster">
<title>cluster_CliModule</title>
<polygon fill="none" stroke="black" stroke-dasharray="1,5" points="8,-70 8,-195 538,-195 538,-70 8,-70"/>
</g>
<g id="clust3" class="cluster">
<title>cluster_CliModule_imports</title>
<polygon fill="none" stroke="black" points="404,-78 404,-130 530,-130 530,-78 404,-78"/>
</g>
<g id="clust6" class="cluster">
<title>cluster_CliModule_providers</title>
<polygon fill="none" stroke="black" points="16,-78 16,-130 396,-130 396,-78 16,-78"/>
</g>
<!-- DatabaseModule -->
<g id="node1" class="node">
<title>DatabaseModule</title>
<polygon fill="#8dd3c7" stroke="black" points="522.35,-122 519.35,-126 498.35,-126 495.35,-122 411.65,-122 411.65,-86 522.35,-86 522.35,-122"/>
<text text-anchor="middle" x="467" y="-99.8" font-family="Times,serif" font-size="14.00">DatabaseModule</text>
</g>
<!-- CliModule -->
<g id="node2" class="node">
<title>CliModule</title>
<polygon fill="#8dd3c7" stroke="black" points="340.17,-187 337.17,-191 316.17,-191 313.17,-187 263.83,-187 263.83,-151 340.17,-151 340.17,-187"/>
<text text-anchor="middle" x="302" y="-164.8" font-family="Times,serif" font-size="14.00">CliModule</text>
</g>
<!-- DatabaseModule&#45;&gt;CliModule -->
<g id="edge1" class="edge">
<title>DatabaseModule&#45;&gt;CliModule</title>
<path fill="none" stroke="black" d="M467,-122.11C467,-141.34 467,-169 467,-169 467,-169 350.27,-169 350.27,-169"/>
<polygon fill="black" stroke="black" points="350.27,-165.5 340.27,-169 350.27,-172.5 350.27,-165.5"/>
</g>
<!-- SeedTodoDatabase -->
<g id="node3" class="node">
<title>SeedTodoDatabase</title>
<ellipse fill="#fdb462" stroke="black" cx="302" cy="-104" rx="85.66" ry="18"/>
<text text-anchor="middle" x="302" y="-99.8" font-family="Times,serif" font-size="14.00">SeedTodoDatabase</text>
</g>
<!-- SeedTodoDatabase&#45;&gt;CliModule -->
<g id="edge2" class="edge">
<title>SeedTodoDatabase&#45;&gt;CliModule</title>
<path fill="none" stroke="black" d="M302,-122.11C302,-122.11 302,-140.99 302,-140.99"/>
<polygon fill="black" stroke="black" points="298.5,-140.99 302,-150.99 305.5,-140.99 298.5,-140.99"/>
</g>
<!-- SeedUsersDatabase -->
<g id="node4" class="node">
<title>SeedUsersDatabase</title>
<ellipse fill="#fdb462" stroke="black" cx="111" cy="-104" rx="87.35" ry="18"/>
<text text-anchor="middle" x="111" y="-99.8" font-family="Times,serif" font-size="14.00">SeedUsersDatabase</text>
</g>
<!-- SeedUsersDatabase&#45;&gt;CliModule -->
<g id="edge3" class="edge">
<title>SeedUsersDatabase&#45;&gt;CliModule</title>
<path fill="none" stroke="black" d="M111,-122.11C111,-141.34 111,-169 111,-169 111,-169 253.81,-169 253.81,-169"/>
<polygon fill="black" stroke="black" points="253.81,-172.5 263.81,-169 253.81,-165.5 253.81,-172.5"/>
</g>
</g>
</svg>
