<?xml version="1.0" encoding="UTF-8" standalone="no"?>
<!DOCTYPE svg PUBLIC "-//W3C//DTD SVG 1.1//EN"
 "http://www.w3.org/Graphics/SVG/1.1/DTD/svg11.dtd">
<!-- Generated by graphviz version 2.47.0 (20210316.0004)
 -->
<!-- Title: dependencies Pages: 1 -->
<svg width="504pt" height="211pt"
 viewBox="0.00 0.00 504.00 211.00" xmlns="http://www.w3.org/2000/svg" xmlns:xlink="http://www.w3.org/1999/xlink">
<g id="graph0" class="graph" transform="scale(1 1) rotate(0) translate(4 207)">
<title>dependencies</title>
<polygon fill="white" stroke="transparent" points="-4,4 -4,-207 500,-207 500,4 -4,4"/>
<text text-anchor="start" x="227.01" y="-42.4" font-family="Times-12" font-weight="bold" font-size="14.00">Legend</text>
<polygon fill="#ffffb3" stroke="transparent" points="14,-10 14,-30 34,-30 34,-10 14,-10"/>
<text text-anchor="start" x="37.63" y="-15.4" font-family="Times-12" font-size="14.00"> &#160;Declarations</text>
<polygon fill="#8dd3c7" stroke="transparent" points="127,-10 127,-30 147,-30 147,-10 127,-10"/>
<text text-anchor="start" x="150.73" y="-15.4" font-family="Times-12" font-size="14.00"> &#160;Module</text>
<polygon fill="#80b1d3" stroke="transparent" points="213,-10 213,-30 233,-30 233,-10 213,-10"/>
<text text-anchor="start" x="236.78" y="-15.4" font-family="Times-12" font-size="14.00"> &#160;Bootstrap</text>
<polygon fill="#fdb462" stroke="transparent" points="310,-10 310,-30 330,-30 330,-10 310,-10"/>
<text text-anchor="start" x="333.67" y="-15.4" font-family="Times-12" font-size="14.00"> &#160;Providers</text>
<polygon fill="#fb8072" stroke="transparent" points="406,-10 406,-30 426,-30 426,-10 406,-10"/>
<text text-anchor="start" x="429.73" y="-15.4" font-family="Times-12" font-size="14.00"> &#160;Exports</text>
<g id="clust1" class="cluster">
<title>cluster_CommonModules</title>
<polygon fill="none" stroke="black" stroke-dasharray="1,5" points="42.5,-70 42.5,-195 453.5,-195 453.5,-70 42.5,-70"/>
</g>
<g id="clust3" class="cluster">
<title>cluster_CommonModules_imports</title>
<polygon fill="none" stroke="black" points="50.5,-78 50.5,-130 445.5,-130 445.5,-78 50.5,-78"/>
</g>
<!-- DatabaseModule -->
<g id="node1" class="node">
<title>DatabaseModule</title>
<polygon fill="#8dd3c7" stroke="black" points="437.85,-122 434.85,-126 413.85,-126 410.85,-122 327.15,-122 327.15,-86 437.85,-86 437.85,-122"/>
<text text-anchor="middle" x="382.5" y="-99.8" font-family="Times,serif" font-size="14.00">DatabaseModule</text>
</g>
<!-- CommonModules -->
<g id="node4" class="node">
<title>CommonModules</title>
<polygon fill="#8dd3c7" stroke="black" points="308.11,-187 305.11,-191 284.11,-191 281.11,-187 190.89,-187 190.89,-151 308.11,-151 308.11,-187"/>
<text text-anchor="middle" x="249.5" y="-164.8" font-family="Times,serif" font-size="14.00">CommonModules</text>
</g>
<!-- DatabaseModule&#45;&gt;CommonModules -->
<g id="edge1" class="edge">
<title>DatabaseModule&#45;&gt;CommonModules</title>
<path fill="none" stroke="black" d="M382.5,-122.11C382.5,-141.34 382.5,-169 382.5,-169 382.5,-169 318.22,-169 318.22,-169"/>
<polygon fill="black" stroke="black" points="318.22,-165.5 308.22,-169 318.22,-172.5 318.22,-165.5"/>
</g>
<!-- ErrorFilterModule -->
<g id="node2" class="node">
<title>ErrorFilterModule</title>
<polygon fill="#8dd3c7" stroke="black" points="309.41,-122 306.41,-126 285.41,-126 282.41,-122 189.59,-122 189.59,-86 309.41,-86 309.41,-122"/>
<text text-anchor="middle" x="249.5" y="-99.8" font-family="Times,serif" font-size="14.00">ErrorFilterModule</text>
</g>
<!-- ErrorFilterModule&#45;&gt;CommonModules -->
<g id="edge2" class="edge">
<title>ErrorFilterModule&#45;&gt;CommonModules</title>
<path fill="none" stroke="black" d="M249.5,-122.11C249.5,-122.11 249.5,-140.99 249.5,-140.99"/>
<polygon fill="black" stroke="black" points="246,-140.99 249.5,-150.99 253,-140.99 246,-140.99"/>
</g>
<!-- ResponseModule -->
<g id="node3" class="node">
<title>ResponseModule</title>
<polygon fill="#8dd3c7" stroke="black" points="172.2,-122 169.2,-126 148.2,-126 145.2,-122 58.8,-122 58.8,-86 172.2,-86 172.2,-122"/>
<text text-anchor="middle" x="115.5" y="-99.8" font-family="Times,serif" font-size="14.00">ResponseModule</text>
</g>
<!-- ResponseModule&#45;&gt;CommonModules -->
<g id="edge3" class="edge">
<title>ResponseModule&#45;&gt;CommonModules</title>
<path fill="none" stroke="black" d="M115.5,-122.11C115.5,-141.34 115.5,-169 115.5,-169 115.5,-169 180.73,-169 180.73,-169"/>
<polygon fill="black" stroke="black" points="180.73,-172.5 190.73,-169 180.73,-165.5 180.73,-172.5"/>
</g>
</g>
</svg>
