<?xml version="1.0" encoding="UTF-8" standalone="no"?>
<!DOCTYPE svg PUBLIC "-//W3C//DTD SVG 1.1//EN"
 "http://www.w3.org/Graphics/SVG/1.1/DTD/svg11.dtd">
<!-- Generated by graphviz version 2.47.0 (20210316.0004)
 -->
<!-- Title: dependencies Pages: 1 -->
<svg width="597pt" height="211pt"
 viewBox="0.00 0.00 597.00 211.00" xmlns="http://www.w3.org/2000/svg" xmlns:xlink="http://www.w3.org/1999/xlink">
<g id="graph0" class="graph" transform="scale(1 1) rotate(0) translate(4 207)">
<title>dependencies</title>
<polygon fill="white" stroke="transparent" points="-4,4 -4,-207 593,-207 593,4 -4,4"/>
<text text-anchor="start" x="273.51" y="-42.4" font-family="Times-12" font-weight="bold" font-size="14.00">Legend</text>
<polygon fill="#ffffb3" stroke="transparent" points="60.5,-10 60.5,-30 80.5,-30 80.5,-10 60.5,-10"/>
<text text-anchor="start" x="84.13" y="-15.4" font-family="Times-12" font-size="14.00"> &#160;Declarations</text>
<polygon fill="#8dd3c7" stroke="transparent" points="173.5,-10 173.5,-30 193.5,-30 193.5,-10 173.5,-10"/>
<text text-anchor="start" x="197.23" y="-15.4" font-family="Times-12" font-size="14.00"> &#160;Module</text>
<polygon fill="#80b1d3" stroke="transparent" points="259.5,-10 259.5,-30 279.5,-30 279.5,-10 259.5,-10"/>
<text text-anchor="start" x="283.28" y="-15.4" font-family="Times-12" font-size="14.00"> &#160;Bootstrap</text>
<polygon fill="#fdb462" stroke="transparent" points="356.5,-10 356.5,-30 376.5,-30 376.5,-10 356.5,-10"/>
<text text-anchor="start" x="380.17" y="-15.4" font-family="Times-12" font-size="14.00"> &#160;Providers</text>
<polygon fill="#fb8072" stroke="transparent" points="452.5,-10 452.5,-30 472.5,-30 472.5,-10 452.5,-10"/>
<text text-anchor="start" x="476.23" y="-15.4" font-family="Times-12" font-size="14.00"> &#160;Exports</text>
<g id="clust1" class="cluster">
<title>cluster_AdminRouteModules</title>
<polygon fill="none" stroke="black" stroke-dasharray="1,5" points="8,-70 8,-195 581,-195 581,-70 8,-70"/>
</g>
<g id="clust3" class="cluster">
<title>cluster_AdminRouteModules_imports</title>
<polygon fill="none" stroke="black" points="16,-78 16,-130 573,-130 573,-78 16,-78"/>
</g>
<!-- AdminsModule -->
<g id="node1" class="node">
<title>AdminsModule</title>
<polygon fill="#8dd3c7" stroke="black" points="564.88,-122 561.88,-126 540.88,-126 537.88,-122 461.12,-122 461.12,-86 564.88,-86 564.88,-122"/>
<text text-anchor="middle" x="513" y="-99.8" font-family="Times,serif" font-size="14.00">AdminsModule</text>
</g>
<!-- AdminRouteModules -->
<g id="node6" class="node">
<title>AdminRouteModules</title>
<polygon fill="#8dd3c7" stroke="black" points="360.82,-187 357.82,-191 336.82,-191 333.82,-187 223.18,-187 223.18,-151 360.82,-151 360.82,-187"/>
<text text-anchor="middle" x="292" y="-164.8" font-family="Times,serif" font-size="14.00">AdminRouteModules</text>
</g>
<!-- AdminsModule&#45;&gt;AdminRouteModules -->
<g id="edge1" class="edge">
<title>AdminsModule&#45;&gt;AdminRouteModules</title>
<path fill="none" stroke="black" d="M513,-122.11C513,-141.34 513,-169 513,-169 513,-169 370.71,-169 370.71,-169"/>
<polygon fill="black" stroke="black" points="370.71,-165.5 360.71,-169 370.71,-172.5 370.71,-165.5"/>
</g>
<!-- AuthModule -->
<g id="node2" class="node">
<title>AuthModule</title>
<polygon fill="#8dd3c7" stroke="black" points="442.55,-122 439.55,-126 418.55,-126 415.55,-122 355.45,-122 355.45,-86 442.55,-86 442.55,-122"/>
<text text-anchor="middle" x="399" y="-99.8" font-family="Times,serif" font-size="14.00">AuthModule</text>
</g>
<!-- AuthModule&#45;&gt;AdminRouteModules -->
<g id="edge2" class="edge">
<title>AuthModule&#45;&gt;AdminRouteModules</title>
<path fill="none" stroke="black" d="M355.15,-104C349.96,-104 346.47,-104 346.47,-104 346.47,-104 346.47,-140.89 346.47,-140.89"/>
<polygon fill="black" stroke="black" points="342.97,-140.89 346.47,-150.89 349.97,-140.89 342.97,-140.89"/>
</g>
<!-- RolesModule -->
<g id="node3" class="node">
<title>RolesModule</title>
<polygon fill="#8dd3c7" stroke="black" points="337.94,-122 334.94,-126 313.94,-126 310.94,-122 246.06,-122 246.06,-86 337.94,-86 337.94,-122"/>
<text text-anchor="middle" x="292" y="-99.8" font-family="Times,serif" font-size="14.00">RolesModule</text>
</g>
<!-- RolesModule&#45;&gt;AdminRouteModules -->
<g id="edge3" class="edge">
<title>RolesModule&#45;&gt;AdminRouteModules</title>
<path fill="none" stroke="black" d="M292,-122.11C292,-122.11 292,-140.99 292,-140.99"/>
<polygon fill="black" stroke="black" points="288.5,-140.99 292,-150.99 295.5,-140.99 288.5,-140.99"/>
</g>
<!-- TodosModule -->
<g id="node4" class="node">
<title>TodosModule</title>
<polygon fill="#8dd3c7" stroke="black" points="228.05,-122 225.05,-126 204.05,-126 201.05,-122 133.95,-122 133.95,-86 228.05,-86 228.05,-122"/>
<text text-anchor="middle" x="181" y="-99.8" font-family="Times,serif" font-size="14.00">TodosModule</text>
</g>
<!-- TodosModule&#45;&gt;AdminRouteModules -->
<g id="edge4" class="edge">
<title>TodosModule&#45;&gt;AdminRouteModules</title>
<path fill="none" stroke="black" d="M228.24,-104C233.65,-104 237.28,-104 237.28,-104 237.28,-104 237.28,-140.89 237.28,-140.89"/>
<polygon fill="black" stroke="black" points="233.78,-140.89 237.28,-150.89 240.78,-140.89 233.78,-140.89"/>
</g>
<!-- UsersModule -->
<g id="node5" class="node">
<title>UsersModule</title>
<polygon fill="#8dd3c7" stroke="black" points="115.92,-122 112.92,-126 91.92,-126 88.92,-122 24.08,-122 24.08,-86 115.92,-86 115.92,-122"/>
<text text-anchor="middle" x="70" y="-99.8" font-family="Times,serif" font-size="14.00">UsersModule</text>
</g>
<!-- UsersModule&#45;&gt;AdminRouteModules -->
<g id="edge5" class="edge">
<title>UsersModule&#45;&gt;AdminRouteModules</title>
<path fill="none" stroke="black" d="M70,-122.11C70,-141.34 70,-169 70,-169 70,-169 213.28,-169 213.28,-169"/>
<polygon fill="black" stroke="black" points="213.28,-172.5 223.28,-169 213.28,-165.5 213.28,-172.5"/>
</g>
</g>
</svg>
