<?xml version="1.0" encoding="UTF-8" standalone="no"?>
<!DOCTYPE svg PUBLIC "-//W3C//DTD SVG 1.1//EN"
 "http://www.w3.org/Graphics/SVG/1.1/DTD/svg11.dtd">
<!-- Generated by graphviz version 2.47.0 (20210316.0004)
 -->
<!-- Title: dependencies Pages: 1 -->
<svg width="504pt" height="211pt"
 viewBox="0.00 0.00 504.00 211.00" xmlns="http://www.w3.org/2000/svg" xmlns:xlink="http://www.w3.org/1999/xlink">
<g id="graph0" class="graph" transform="scale(1 1) rotate(0) translate(4 207)">
<title>dependencies</title>
<polygon fill="white" stroke="transparent" points="-4,4 -4,-207 500,-207 500,4 -4,4"/>
<text text-anchor="start" x="227.01" y="-42.4" font-family="Times-12" font-weight="bold" font-size="14.00">Legend</text>
<polygon fill="#ffffb3" stroke="transparent" points="14,-10 14,-30 34,-30 34,-10 14,-10"/>
<text text-anchor="start" x="37.63" y="-15.4" font-family="Times-12" font-size="14.00"> &#160;Declarations</text>
<polygon fill="#8dd3c7" stroke="transparent" points="127,-10 127,-30 147,-30 147,-10 127,-10"/>
<text text-anchor="start" x="150.73" y="-15.4" font-family="Times-12" font-size="14.00"> &#160;Module</text>
<polygon fill="#80b1d3" stroke="transparent" points="213,-10 213,-30 233,-30 233,-10 213,-10"/>
<text text-anchor="start" x="236.78" y="-15.4" font-family="Times-12" font-size="14.00"> &#160;Bootstrap</text>
<polygon fill="#fdb462" stroke="transparent" points="310,-10 310,-30 330,-30 330,-10 310,-10"/>
<text text-anchor="start" x="333.67" y="-15.4" font-family="Times-12" font-size="14.00"> &#160;Providers</text>
<polygon fill="#fb8072" stroke="transparent" points="406,-10 406,-30 426,-30 426,-10 406,-10"/>
<text text-anchor="start" x="429.73" y="-15.4" font-family="Times-12" font-size="14.00"> &#160;Exports</text>
<g id="clust1" class="cluster">
<title>cluster_AppModule</title>
<polygon fill="none" stroke="black" stroke-dasharray="1,5" points="115.5,-70 115.5,-195 380.5,-195 380.5,-70 115.5,-70"/>
</g>
<g id="clust3" class="cluster">
<title>cluster_AppModule_imports</title>
<polygon fill="none" stroke="black" points="123.5,-78 123.5,-130 372.5,-130 372.5,-78 123.5,-78"/>
</g>
<!-- CommonModules -->
<g id="node1" class="node">
<title>CommonModules</title>
<polygon fill="#8dd3c7" stroke="black" points="364.11,-122 361.11,-126 340.11,-126 337.11,-122 246.89,-122 246.89,-86 364.11,-86 364.11,-122"/>
<text text-anchor="middle" x="305.5" y="-99.8" font-family="Times,serif" font-size="14.00">CommonModules</text>
</g>
<!-- AppModule -->
<g id="node3" class="node">
<title>AppModule</title>
<polygon fill="#8dd3c7" stroke="black" points="284.16,-187 281.16,-191 260.16,-191 257.16,-187 200.84,-187 200.84,-151 284.16,-151 284.16,-187"/>
<text text-anchor="middle" x="242.5" y="-164.8" font-family="Times,serif" font-size="14.00">AppModule</text>
</g>
<!-- CommonModules&#45;&gt;AppModule -->
<g id="edge1" class="edge">
<title>CommonModules&#45;&gt;AppModule</title>
<path fill="none" stroke="black" d="M265.64,-122.11C265.64,-122.11 265.64,-140.99 265.64,-140.99"/>
<polygon fill="black" stroke="black" points="262.14,-140.99 265.64,-150.99 269.14,-140.99 262.14,-140.99"/>
</g>
<!-- RouterModule -->
<g id="node2" class="node">
<title>RouterModule</title>
<polygon fill="#8dd3c7" stroke="black" points="229.15,-122 226.15,-126 205.15,-126 202.15,-122 131.85,-122 131.85,-86 229.15,-86 229.15,-122"/>
<text text-anchor="middle" x="180.5" y="-99.8" font-family="Times,serif" font-size="14.00">RouterModule</text>
</g>
<!-- RouterModule&#45;&gt;AppModule -->
<g id="edge2" class="edge">
<title>RouterModule&#45;&gt;AppModule</title>
<path fill="none" stroke="black" d="M215,-122.11C215,-122.11 215,-140.99 215,-140.99"/>
<polygon fill="black" stroke="black" points="211.5,-140.99 215,-150.99 218.5,-140.99 211.5,-140.99"/>
</g>
</g>
</svg>
