<?xml version="1.0" encoding="UTF-8" standalone="no"?>
<!DOCTYPE svg PUBLIC "-//W3C//DTD SVG 1.1//EN"
 "http://www.w3.org/Graphics/SVG/1.1/DTD/svg11.dtd">
<!-- Generated by graphviz version 2.47.0 (20210316.0004)
 -->
<!-- Title: dependencies Pages: 1 -->
<svg width="3434pt" height="485pt"
 viewBox="0.00 0.00 3434.00 485.00" xmlns="http://www.w3.org/2000/svg" xmlns:xlink="http://www.w3.org/1999/xlink">
<g id="graph0" class="graph" transform="scale(1 1) rotate(0) translate(4 481)">
<title>dependencies</title>
<polygon fill="white" stroke="transparent" points="-4,4 -4,-481 3430,-481 3430,4 -4,4"/>
<text text-anchor="start" x="1692.01" y="-42.4" font-family="Times-12" font-weight="bold" font-size="14.00">Legend</text>
<polygon fill="#ffffb3" stroke="transparent" points="1479,-10 1479,-30 1499,-30 1499,-10 1479,-10"/>
<text text-anchor="start" x="1502.63" y="-15.4" font-family="Times-12" font-size="14.00"> &#160;Declarations</text>
<polygon fill="#8dd3c7" stroke="transparent" points="1592,-10 1592,-30 1612,-30 1612,-10 1592,-10"/>
<text text-anchor="start" x="1615.73" y="-15.4" font-family="Times-12" font-size="14.00"> &#160;Module</text>
<polygon fill="#80b1d3" stroke="transparent" points="1678,-10 1678,-30 1698,-30 1698,-10 1678,-10"/>
<text text-anchor="start" x="1701.78" y="-15.4" font-family="Times-12" font-size="14.00"> &#160;Bootstrap</text>
<polygon fill="#fdb462" stroke="transparent" points="1775,-10 1775,-30 1795,-30 1795,-10 1775,-10"/>
<text text-anchor="start" x="1798.67" y="-15.4" font-family="Times-12" font-size="14.00"> &#160;Providers</text>
<polygon fill="#fb8072" stroke="transparent" points="1871,-10 1871,-30 1891,-30 1891,-10 1871,-10"/>
<text text-anchor="start" x="1894.73" y="-15.4" font-family="Times-12" font-size="14.00"> &#160;Exports</text>
<g id="clust49" class="cluster">
<title>cluster_PublicRouteModules</title>
<polygon fill="none" stroke="black" stroke-dasharray="1,5" points="2948,-138 2948,-339 3184,-339 3184,-138 2948,-138"/>
</g>
<g id="clust51" class="cluster">
<title>cluster_PublicRouteModules_imports</title>
<polygon fill="none" stroke="black" points="2956,-146 2956,-263 3176,-263 3176,-146 2956,-146"/>
</g>
<g id="clust7" class="cluster">
<title>cluster_AdminsModule</title>
<polygon fill="none" stroke="black" stroke-dasharray="1,5" points="3192,-70 3192,-271 3418,-271 3418,-70 3192,-70"/>
</g>
<g id="clust12" class="cluster">
<title>cluster_AdminsModule_providers</title>
<polygon fill="none" stroke="black" points="3200,-78 3200,-130 3410,-130 3410,-78 3200,-78"/>
</g>
<g id="clust10" class="cluster">
<title>cluster_AdminsModule_exports</title>
<polygon fill="none" stroke="black" points="3200,-211 3200,-263 3360,-263 3360,-211 3200,-211"/>
</g>
<g id="clust25" class="cluster">
<title>cluster_CliModule</title>
<polygon fill="none" stroke="black" stroke-dasharray="1,5" points="299,-279 299,-404 829,-404 829,-279 299,-279"/>
</g>
<g id="clust27" class="cluster">
<title>cluster_CliModule_imports</title>
<polygon fill="none" stroke="black" points="307,-287 307,-339 433,-339 433,-287 307,-287"/>
</g>
<g id="clust30" class="cluster">
<title>cluster_CliModule_providers</title>
<polygon fill="none" stroke="black" points="441,-287 441,-339 821,-339 821,-287 441,-287"/>
</g>
<g id="clust19" class="cluster">
<title>cluster_AuthModule</title>
<polygon fill="none" stroke="black" stroke-dasharray="1,5" points="2254,-279 2254,-347 2940,-347 2940,-279 2254,-279"/>
</g>
<g id="clust22" class="cluster">
<title>cluster_AuthModule_exports</title>
<polygon fill="none" stroke="black" points="2644,-287 2644,-339 2932,-339 2932,-287 2644,-287"/>
</g>
<g id="clust24" class="cluster">
<title>cluster_AuthModule_providers</title>
<polygon fill="none" stroke="black" points="2262,-287 2262,-339 2636,-339 2636,-287 2262,-287"/>
</g>
<g id="clust1" class="cluster">
<title>cluster_AdminRouteModules</title>
<polygon fill="none" stroke="black" stroke-dasharray="1,5" points="1241,-203 1241,-339 1395,-339 1395,-203 1241,-203"/>
</g>
<g id="clust3" class="cluster">
<title>cluster_AdminRouteModules_imports</title>
<polygon fill="none" stroke="black" points="1249,-211 1249,-263 1357,-263 1357,-211 1249,-211"/>
</g>
<g id="clust31" class="cluster">
<title>cluster_CommonModules</title>
<polygon fill="none" stroke="black" stroke-dasharray="1,5" points="8,-279 8,-404 291,-404 291,-279 8,-279"/>
</g>
<g id="clust33" class="cluster">
<title>cluster_CommonModules_imports</title>
<polygon fill="none" stroke="black" points="16,-287 16,-339 283,-339 283,-287 16,-287"/>
</g>
<g id="clust61" class="cluster">
<title>cluster_RolesModule</title>
<polygon fill="none" stroke="black" stroke-dasharray="1,5" points="959,-279 959,-347 1233,-347 1233,-279 959,-279"/>
</g>
<g id="clust64" class="cluster">
<title>cluster_RolesModule_exports</title>
<polygon fill="none" stroke="black" points="1115,-287 1115,-339 1225,-339 1225,-287 1115,-287"/>
</g>
<g id="clust66" class="cluster">
<title>cluster_RolesModule_providers</title>
<polygon fill="none" stroke="black" points="967,-287 967,-339 1107,-339 1107,-287 967,-287"/>
</g>
<g id="clust67" class="cluster">
<title>cluster_RouterModule</title>
<polygon fill="none" stroke="black" stroke-dasharray="1,5" points="837,-279 837,-404 951,-404 951,-279 837,-279"/>
</g>
<g id="clust69" class="cluster">
<title>cluster_RouterModule_imports</title>
<polygon fill="none" stroke="black" points="846,-287 846,-339 942,-339 942,-287 846,-287"/>
</g>
<g id="clust73" class="cluster">
<title>cluster_TodosModule</title>
<polygon fill="none" stroke="black" stroke-dasharray="1,5" points="1403,-203 1403,-271 2123,-271 2123,-203 1403,-203"/>
</g>
<g id="clust76" class="cluster">
<title>cluster_TodosModule_exports</title>
<polygon fill="none" stroke="black" points="1813,-211 1813,-263 2115,-263 2115,-211 1813,-211"/>
</g>
<g id="clust78" class="cluster">
<title>cluster_TodosModule_providers</title>
<polygon fill="none" stroke="black" points="1411,-211 1411,-263 1805,-263 1805,-211 1411,-211"/>
</g>
<g id="clust13" class="cluster">
<title>cluster_AppModule</title>
<polygon fill="none" stroke="black" stroke-dasharray="1,5" points="508,-417 508,-469 608,-469 608,-417 508,-417"/>
</g>
<g id="clust79" class="cluster">
<title>cluster_UsersModule</title>
<polygon fill="none" stroke="black" stroke-dasharray="1,5" points="2131,-203 2131,-271 2836,-271 2836,-203 2131,-203"/>
</g>
<g id="clust82" class="cluster">
<title>cluster_UsersModule_exports</title>
<polygon fill="none" stroke="black" points="2532,-211 2532,-263 2828,-263 2828,-211 2532,-211"/>
</g>
<g id="clust84" class="cluster">
<title>cluster_UsersModule_providers</title>
<polygon fill="none" stroke="black" points="2139,-211 2139,-263 2524,-263 2524,-211 2139,-211"/>
</g>
<!-- AdminsModule -->
<g id="node1" class="node">
<title>AdminsModule</title>
<polygon fill="#8dd3c7" stroke="black" points="3317.88,-190 3314.88,-194 3293.88,-194 3290.88,-190 3214.12,-190 3214.12,-154 3317.88,-154 3317.88,-190"/>
<text text-anchor="middle" x="3266" y="-167.8" font-family="Times,serif" font-size="14.00">AdminsModule</text>
</g>
<!-- AuthModule -->
<g id="node2" class="node">
<title>AuthModule</title>
<polygon fill="#8dd3c7" stroke="black" points="3051.55,-255 3048.55,-259 3027.55,-259 3024.55,-255 2964.45,-255 2964.45,-219 3051.55,-219 3051.55,-255"/>
<text text-anchor="middle" x="3008" y="-232.8" font-family="Times,serif" font-size="14.00">AuthModule</text>
</g>
<!-- AdminsModule&#45;&gt;AuthModule -->
<g id="edge10" class="edge">
<title>AdminsModule&#45;&gt;AuthModule</title>
<path fill="none" stroke="black" d="M3213.74,-172C3199.37,-172 3187.66,-172 3187.66,-172 3187.66,-172 3187.66,-243 3187.66,-243 3187.66,-243 3061.95,-243 3061.95,-243"/>
<polygon fill="black" stroke="black" points="3061.95,-239.5 3051.95,-243 3061.95,-246.5 3061.95,-239.5"/>
</g>
<!-- AdminRouteModules -->
<g id="node6" class="node">
<title>AdminRouteModules</title>
<polygon fill="#8dd3c7" stroke="black" points="1386.82,-331 1383.82,-335 1362.82,-335 1359.82,-331 1249.18,-331 1249.18,-295 1386.82,-295 1386.82,-331"/>
<text text-anchor="middle" x="1318" y="-308.8" font-family="Times,serif" font-size="14.00">AdminRouteModules</text>
</g>
<!-- AdminsModule&#45;&gt;AdminRouteModules -->
<g id="edge1" class="edge">
<title>AdminsModule&#45;&gt;AdminRouteModules</title>
<path fill="none" stroke="black" d="M3248.69,-190.12C3248.69,-192.97 3248.69,-195 3248.69,-195 3248.69,-195 1363.9,-195 1363.9,-195 1363.9,-195 1363.9,-284.82 1363.9,-284.82"/>
<polygon fill="black" stroke="black" points="1360.4,-284.82 1363.9,-294.82 1367.4,-284.82 1360.4,-284.82"/>
</g>
<!-- AdminsServiceAdmin  -->
<g id="node7" class="node">
<title>AdminsServiceAdmin </title>
<polygon fill="#fb8072" stroke="black" points="3352.2,-255 3207.8,-255 3207.8,-219 3352.2,-219 3352.2,-255"/>
<text text-anchor="middle" x="3280" y="-232.8" font-family="Times,serif" font-size="14.00">AdminsServiceAdmin </text>
</g>
<!-- AdminsModule&#45;&gt;AdminsServiceAdmin  -->
<g id="edge6" class="edge">
<title>AdminsModule&#45;&gt;AdminsServiceAdmin </title>
<path fill="none" stroke="black" stroke-dasharray="5,2" d="M3283.31,-190.11C3283.31,-190.11 3283.31,-208.99 3283.31,-208.99"/>
<polygon fill="black" stroke="black" points="3279.81,-208.99 3283.31,-218.99 3286.81,-208.99 3279.81,-208.99"/>
</g>
<!-- AuthModule&#45;&gt;AdminRouteModules -->
<g id="edge2" class="edge">
<title>AuthModule&#45;&gt;AdminRouteModules</title>
<path fill="none" stroke="black" d="M2966.84,-255.17C2966.84,-259.05 2966.84,-262 2966.84,-262 2966.84,-262 1371.48,-262 1371.48,-262 1371.48,-262 1371.48,-284.88 1371.48,-284.88"/>
<polygon fill="black" stroke="black" points="1367.98,-284.88 1371.48,-294.88 1374.98,-284.88 1367.98,-284.88"/>
</g>
<!-- AuthServiceAdmin  -->
<g id="node12" class="node">
<title>AuthServiceAdmin </title>
<polygon fill="#fb8072" stroke="black" points="2924.36,-331 2795.64,-331 2795.64,-295 2924.36,-295 2924.36,-331"/>
<text text-anchor="middle" x="2860" y="-308.8" font-family="Times,serif" font-size="14.00">AuthServiceAdmin </text>
</g>
<!-- AuthModule&#45;&gt;AuthServiceAdmin  -->
<g id="edge12" class="edge">
<title>AuthModule&#45;&gt;AuthServiceAdmin </title>
<path fill="none" stroke="black" stroke-dasharray="5,2" d="M2977.28,-255.01C2977.28,-277.49 2977.28,-313 2977.28,-313 2977.28,-313 2934.47,-313 2934.47,-313"/>
<polygon fill="black" stroke="black" points="2934.47,-309.5 2924.47,-313 2934.47,-316.5 2934.47,-309.5"/>
</g>
<!-- AuthServicePublic  -->
<g id="node13" class="node">
<title>AuthServicePublic </title>
<polygon fill="#fb8072" stroke="black" points="2777.75,-331 2652.25,-331 2652.25,-295 2777.75,-295 2777.75,-331"/>
<text text-anchor="middle" x="2715" y="-308.8" font-family="Times,serif" font-size="14.00">AuthServicePublic </text>
</g>
<!-- AuthModule&#45;&gt;AuthServicePublic  -->
<g id="edge13" class="edge">
<title>AuthModule&#45;&gt;AuthServicePublic </title>
<path fill="none" stroke="black" stroke-dasharray="5,2" d="M2974.67,-255.19C2974.67,-270.18 2974.67,-289 2974.67,-289 2974.67,-289 2732.75,-289 2732.75,-289 2732.75,-289 2732.75,-289.58 2732.75,-289.58"/>
<polygon fill="black" stroke="black" points="2729.25,-284.81 2732.75,-294.81 2736.25,-284.81 2729.25,-284.81"/>
</g>
<!-- PublicRouteModules -->
<g id="node22" class="node">
<title>PublicRouteModules</title>
<polygon fill="#8dd3c7" stroke="black" points="3114.21,-331 3111.21,-335 3090.21,-335 3087.21,-331 2979.79,-331 2979.79,-295 3114.21,-295 3114.21,-331"/>
<text text-anchor="middle" x="3047" y="-308.8" font-family="Times,serif" font-size="14.00">PublicRouteModules</text>
</g>
<!-- AuthModule&#45;&gt;PublicRouteModules -->
<g id="edge22" class="edge">
<title>AuthModule&#45;&gt;PublicRouteModules</title>
<path fill="none" stroke="black" d="M3015.83,-255.01C3015.83,-255.01 3015.83,-284.85 3015.83,-284.85"/>
<polygon fill="black" stroke="black" points="3012.33,-284.85 3015.83,-294.85 3019.33,-284.85 3012.33,-284.85"/>
</g>
<!-- RolesModule -->
<g id="node3" class="node">
<title>RolesModule</title>
<polygon fill="#8dd3c7" stroke="black" points="1348.94,-255 1345.94,-259 1324.94,-259 1321.94,-255 1257.06,-255 1257.06,-219 1348.94,-219 1348.94,-255"/>
<text text-anchor="middle" x="1303" y="-232.8" font-family="Times,serif" font-size="14.00">RolesModule</text>
</g>
<!-- RolesModule&#45;&gt;AdminRouteModules -->
<g id="edge3" class="edge">
<title>RolesModule&#45;&gt;AdminRouteModules</title>
<path fill="none" stroke="black" d="M1303,-255.01C1303,-255.01 1303,-284.85 1303,-284.85"/>
<polygon fill="black" stroke="black" points="1299.5,-284.85 1303,-294.85 1306.5,-284.85 1299.5,-284.85"/>
</g>
<!-- RolesService  -->
<g id="node23" class="node">
<title>RolesService </title>
<polygon fill="#fb8072" stroke="black" points="1216.86,-331 1123.14,-331 1123.14,-295 1216.86,-295 1216.86,-331"/>
<text text-anchor="middle" x="1170" y="-308.8" font-family="Times,serif" font-size="14.00">RolesService </text>
</g>
<!-- RolesModule&#45;&gt;RolesService  -->
<g id="edge25" class="edge">
<title>RolesModule&#45;&gt;RolesService </title>
<path fill="none" stroke="black" stroke-dasharray="5,2" d="M1257.23,-243C1218.76,-243 1170,-243 1170,-243 1170,-243 1170,-284.97 1170,-284.97"/>
<polygon fill="black" stroke="black" points="1166.5,-284.97 1170,-294.97 1173.5,-284.97 1166.5,-284.97"/>
</g>
<!-- TodosModule -->
<g id="node4" class="node">
<title>TodosModule</title>
<polygon fill="#8dd3c7" stroke="black" points="3058.05,-190 3055.05,-194 3034.05,-194 3031.05,-190 2963.95,-190 2963.95,-154 3058.05,-154 3058.05,-190"/>
<text text-anchor="middle" x="3011" y="-167.8" font-family="Times,serif" font-size="14.00">TodosModule</text>
</g>
<!-- TodosModule&#45;&gt;AdminRouteModules -->
<g id="edge4" class="edge">
<title>TodosModule&#45;&gt;AdminRouteModules</title>
<path fill="none" stroke="black" d="M2963.7,-160C2693.41,-160 1356.31,-160 1356.31,-160 1356.31,-160 1356.31,-284.85 1356.31,-284.85"/>
<polygon fill="black" stroke="black" points="1352.81,-284.85 1356.31,-294.85 1359.81,-284.85 1352.81,-284.85"/>
</g>
<!-- TodosModule&#45;&gt;PublicRouteModules -->
<g id="edge23" class="edge">
<title>TodosModule&#45;&gt;PublicRouteModules</title>
<path fill="none" stroke="black" d="M3058.24,-172C3063.65,-172 3067.28,-172 3067.28,-172 3067.28,-172 3067.28,-284.86 3067.28,-284.86"/>
<polygon fill="black" stroke="black" points="3063.78,-284.86 3067.28,-294.86 3070.78,-284.86 3063.78,-284.86"/>
</g>
<!-- TodosServiceAdmin  -->
<g id="node26" class="node">
<title>TodosServiceAdmin </title>
<polygon fill="#fb8072" stroke="black" points="2106.86,-255 1971.14,-255 1971.14,-219 2106.86,-219 2106.86,-255"/>
<text text-anchor="middle" x="2039" y="-232.8" font-family="Times,serif" font-size="14.00">TodosServiceAdmin </text>
</g>
<!-- TodosModule&#45;&gt;TodosServiceAdmin  -->
<g id="edge30" class="edge">
<title>TodosModule&#45;&gt;TodosServiceAdmin </title>
<path fill="none" stroke="black" stroke-dasharray="5,2" d="M2963.79,-184C2769.13,-184 2039,-184 2039,-184 2039,-184 2039,-208.76 2039,-208.76"/>
<polygon fill="black" stroke="black" points="2035.5,-208.76 2039,-218.76 2042.5,-208.76 2035.5,-208.76"/>
</g>
<!-- TodosServicePublic  -->
<g id="node27" class="node">
<title>TodosServicePublic </title>
<polygon fill="#fb8072" stroke="black" points="1953.25,-255 1820.75,-255 1820.75,-219 1953.25,-219 1953.25,-255"/>
<text text-anchor="middle" x="1887" y="-232.8" font-family="Times,serif" font-size="14.00">TodosServicePublic </text>
</g>
<!-- TodosModule&#45;&gt;TodosServicePublic  -->
<g id="edge31" class="edge">
<title>TodosModule&#45;&gt;TodosServicePublic </title>
<path fill="none" stroke="black" stroke-dasharray="5,2" d="M2963.78,-178C2750.45,-178 1887,-178 1887,-178 1887,-178 1887,-208.98 1887,-208.98"/>
<polygon fill="black" stroke="black" points="1883.5,-208.98 1887,-218.98 1890.5,-208.98 1883.5,-208.98"/>
</g>
<!-- UsersModule -->
<g id="node5" class="node">
<title>UsersModule</title>
<polygon fill="#8dd3c7" stroke="black" points="3167.92,-190 3164.92,-194 3143.92,-194 3140.92,-190 3076.08,-190 3076.08,-154 3167.92,-154 3167.92,-190"/>
<text text-anchor="middle" x="3122" y="-167.8" font-family="Times,serif" font-size="14.00">UsersModule</text>
</g>
<!-- UsersModule&#45;&gt;AuthModule -->
<g id="edge11" class="edge">
<title>UsersModule&#45;&gt;AuthModule</title>
<path fill="none" stroke="black" d="M3099.93,-190.02C3099.93,-207.37 3099.93,-231 3099.93,-231 3099.93,-231 3061.81,-231 3061.81,-231"/>
<polygon fill="black" stroke="black" points="3061.81,-227.5 3051.81,-231 3061.81,-234.5 3061.81,-227.5"/>
</g>
<!-- UsersModule&#45;&gt;AdminRouteModules -->
<g id="edge5" class="edge">
<title>UsersModule&#45;&gt;AdminRouteModules</title>
<path fill="none" stroke="black" d="M3104.65,-190.24C3104.65,-218.34 3104.65,-269 3104.65,-269 3104.65,-269 1379.07,-269 1379.07,-269 1379.07,-269 1379.07,-284.85 1379.07,-284.85"/>
<polygon fill="black" stroke="black" points="1375.57,-284.85 1379.07,-294.85 1382.57,-284.85 1375.57,-284.85"/>
</g>
<!-- UsersModule&#45;&gt;PublicRouteModules -->
<g id="edge24" class="edge">
<title>UsersModule&#45;&gt;PublicRouteModules</title>
<path fill="none" stroke="black" d="M3109.38,-190.14C3109.38,-190.14 3109.38,-284.93 3109.38,-284.93"/>
<polygon fill="black" stroke="black" points="3105.88,-284.92 3109.38,-294.93 3112.88,-284.93 3105.88,-284.92"/>
</g>
<!-- UsersServiceAdmin  -->
<g id="node30" class="node">
<title>UsersServiceAdmin </title>
<polygon fill="#fb8072" stroke="black" points="2820.24,-255 2687.76,-255 2687.76,-219 2820.24,-219 2820.24,-255"/>
<text text-anchor="middle" x="2754" y="-232.8" font-family="Times,serif" font-size="14.00">UsersServiceAdmin </text>
</g>
<!-- UsersModule&#45;&gt;UsersServiceAdmin  -->
<g id="edge34" class="edge">
<title>UsersModule&#45;&gt;UsersServiceAdmin </title>
<path fill="none" stroke="black" stroke-dasharray="5,2" d="M3095.2,-190.49C3095.2,-202.14 3095.2,-215 3095.2,-215 3095.2,-215 2754,-215 2754,-215 2754,-215 2754,-215.38 2754,-215.38"/>
<polygon fill="black" stroke="black" points="2750.5,-208.83 2754,-218.83 2757.5,-208.83 2750.5,-208.83"/>
</g>
<!-- UsersServicePublic  -->
<g id="node31" class="node">
<title>UsersServicePublic </title>
<polygon fill="#fb8072" stroke="black" points="2669.63,-255 2540.37,-255 2540.37,-219 2669.63,-219 2669.63,-255"/>
<text text-anchor="middle" x="2605" y="-232.8" font-family="Times,serif" font-size="14.00">UsersServicePublic </text>
</g>
<!-- UsersModule&#45;&gt;UsersServicePublic  -->
<g id="edge35" class="edge">
<title>UsersModule&#45;&gt;UsersServicePublic </title>
<path fill="none" stroke="black" stroke-dasharray="5,2" d="M3090.47,-190.11C3090.47,-199.9 3090.47,-210 3090.47,-210 3090.47,-210 2605,-210 2605,-210 2605,-210 2605,-210.88 2605,-210.88"/>
<polygon fill="black" stroke="black" points="2601.5,-208.84 2605,-218.84 2608.5,-208.84 2601.5,-208.84"/>
</g>
<!-- RouterModule -->
<g id="node10" class="node">
<title>RouterModule</title>
<polygon fill="#8dd3c7" stroke="black" points="942.65,-396 939.65,-400 918.65,-400 915.65,-396 845.35,-396 845.35,-360 942.65,-360 942.65,-396"/>
<text text-anchor="middle" x="894" y="-373.8" font-family="Times,serif" font-size="14.00">RouterModule</text>
</g>
<!-- AdminRouteModules&#45;&gt;RouterModule -->
<g id="edge27" class="edge">
<title>AdminRouteModules&#45;&gt;RouterModule</title>
<path fill="none" stroke="black" d="M1318,-331.02C1318,-348.37 1318,-372 1318,-372 1318,-372 953.05,-372 953.05,-372"/>
<polygon fill="black" stroke="black" points="953.05,-368.5 943.05,-372 953.05,-375.5 953.05,-368.5"/>
</g>
<!-- AdminsServiceAdmin -->
<g id="node8" class="node">
<title>AdminsServiceAdmin</title>
<ellipse fill="#fdb462" stroke="black" cx="3305" cy="-104" rx="97.29" ry="18"/>
<text text-anchor="middle" x="3305" y="-99.8" font-family="Times,serif" font-size="14.00">AdminsServiceAdmin</text>
</g>
<!-- AdminsServiceAdmin&#45;&gt;AdminsModule -->
<g id="edge7" class="edge">
<title>AdminsServiceAdmin&#45;&gt;AdminsModule</title>
<path fill="none" stroke="black" d="M3266,-120.81C3266,-120.81 3266,-143.96 3266,-143.96"/>
<polygon fill="black" stroke="black" points="3262.5,-143.96 3266,-153.96 3269.5,-143.96 3262.5,-143.96"/>
</g>
<!-- CommonModules -->
<g id="node9" class="node">
<title>CommonModules</title>
<polygon fill="#8dd3c7" stroke="black" points="277.61,-396 274.61,-400 253.61,-400 250.61,-396 160.39,-396 160.39,-360 277.61,-360 277.61,-396"/>
<text text-anchor="middle" x="219" y="-373.8" font-family="Times,serif" font-size="14.00">CommonModules</text>
</g>
<!-- AppModule -->
<g id="node11" class="node">
<title>AppModule</title>
<polygon fill="#8dd3c7" stroke="black" points="599.66,-461 596.66,-465 575.66,-465 572.66,-461 516.34,-461 516.34,-425 599.66,-425 599.66,-461"/>
<text text-anchor="middle" x="558" y="-438.8" font-family="Times,serif" font-size="14.00">AppModule</text>
</g>
<!-- CommonModules&#45;&gt;AppModule -->
<g id="edge8" class="edge">
<title>CommonModules&#45;&gt;AppModule</title>
<path fill="none" stroke="black" d="M219,-396.11C219,-415.34 219,-443 219,-443 219,-443 506.09,-443 506.09,-443"/>
<polygon fill="black" stroke="black" points="506.09,-446.5 516.09,-443 506.09,-439.5 506.09,-446.5"/>
</g>
<!-- RouterModule&#45;&gt;AppModule -->
<g id="edge9" class="edge">
<title>RouterModule&#45;&gt;AppModule</title>
<path fill="none" stroke="black" d="M845.03,-384C758.38,-384 587.08,-384 587.08,-384 587.08,-384 587.08,-414.98 587.08,-414.98"/>
<polygon fill="black" stroke="black" points="583.58,-414.98 587.08,-424.98 590.58,-414.98 583.58,-414.98"/>
</g>
<!-- AuthServiceAdmin -->
<g id="node14" class="node">
<title>AuthServiceAdmin</title>
<ellipse fill="#fdb462" stroke="black" cx="2542" cy="-313" rx="86.26" ry="18"/>
<text text-anchor="middle" x="2542" y="-308.8" font-family="Times,serif" font-size="14.00">AuthServiceAdmin</text>
</g>
<!-- AuthServiceAdmin&#45;&gt;AuthModule -->
<g id="edge14" class="edge">
<title>AuthServiceAdmin&#45;&gt;AuthModule</title>
<path fill="none" stroke="black" d="M2584.28,-297.14C2584.28,-289.51 2584.28,-282 2584.28,-282 2584.28,-282 2972.06,-282 2972.06,-282 2972.06,-282 2972.06,-265.04 2972.06,-265.04"/>
<polygon fill="black" stroke="black" points="2975.56,-265.04 2972.06,-255.04 2968.56,-265.04 2975.56,-265.04"/>
</g>
<!-- AuthServicePublic -->
<g id="node15" class="node">
<title>AuthServicePublic</title>
<ellipse fill="#fdb462" stroke="black" cx="2354" cy="-313" rx="83.97" ry="18"/>
<text text-anchor="middle" x="2354" y="-308.8" font-family="Times,serif" font-size="14.00">AuthServicePublic</text>
</g>
<!-- AuthServicePublic&#45;&gt;AuthModule -->
<g id="edge15" class="edge">
<title>AuthServicePublic&#45;&gt;AuthModule</title>
<path fill="none" stroke="black" d="M2388.09,-296.22C2388.09,-286.04 2388.09,-275 2388.09,-275 2388.09,-275 2969.45,-275 2969.45,-275 2969.45,-275 2969.45,-265.11 2969.45,-265.11"/>
<polygon fill="black" stroke="black" points="2972.95,-265.11 2969.45,-255.11 2965.95,-265.11 2972.95,-265.11"/>
</g>
<!-- DatabaseModule -->
<g id="node16" class="node">
<title>DatabaseModule</title>
<polygon fill="#8dd3c7" stroke="black" points="425.35,-331 422.35,-335 401.35,-335 398.35,-331 314.65,-331 314.65,-295 425.35,-295 425.35,-331"/>
<text text-anchor="middle" x="370" y="-308.8" font-family="Times,serif" font-size="14.00">DatabaseModule</text>
</g>
<!-- DatabaseModule&#45;&gt;CommonModules -->
<g id="edge19" class="edge">
<title>DatabaseModule&#45;&gt;CommonModules</title>
<path fill="none" stroke="black" d="M351.52,-331.28C351.52,-352.32 351.52,-384 351.52,-384 351.52,-384 287.9,-384 287.9,-384"/>
<polygon fill="black" stroke="black" points="287.9,-380.5 277.9,-384 287.9,-387.5 287.9,-380.5"/>
</g>
<!-- CliModule -->
<g id="node17" class="node">
<title>CliModule</title>
<polygon fill="#8dd3c7" stroke="black" points="574.17,-396 571.17,-400 550.17,-400 547.17,-396 497.83,-396 497.83,-360 574.17,-360 574.17,-396"/>
<text text-anchor="middle" x="536" y="-373.8" font-family="Times,serif" font-size="14.00">CliModule</text>
</g>
<!-- DatabaseModule&#45;&gt;CliModule -->
<g id="edge16" class="edge">
<title>DatabaseModule&#45;&gt;CliModule</title>
<path fill="none" stroke="black" d="M388.48,-331.02C388.48,-348.37 388.48,-372 388.48,-372 388.48,-372 487.62,-372 487.62,-372"/>
<polygon fill="black" stroke="black" points="487.62,-375.5 497.62,-372 487.62,-368.5 487.62,-375.5"/>
</g>
<!-- SeedTodoDatabase -->
<g id="node18" class="node">
<title>SeedTodoDatabase</title>
<ellipse fill="#fdb462" stroke="black" cx="727" cy="-313" rx="85.66" ry="18"/>
<text text-anchor="middle" x="727" y="-308.8" font-family="Times,serif" font-size="14.00">SeedTodoDatabase</text>
</g>
<!-- SeedTodoDatabase&#45;&gt;CliModule -->
<g id="edge17" class="edge">
<title>SeedTodoDatabase&#45;&gt;CliModule</title>
<path fill="none" stroke="black" d="M727,-331.02C727,-348.37 727,-372 727,-372 727,-372 584.19,-372 584.19,-372"/>
<polygon fill="black" stroke="black" points="584.19,-368.5 574.19,-372 584.19,-375.5 584.19,-368.5"/>
</g>
<!-- SeedUsersDatabase -->
<g id="node19" class="node">
<title>SeedUsersDatabase</title>
<ellipse fill="#fdb462" stroke="black" cx="536" cy="-313" rx="87.35" ry="18"/>
<text text-anchor="middle" x="536" y="-308.8" font-family="Times,serif" font-size="14.00">SeedUsersDatabase</text>
</g>
<!-- SeedUsersDatabase&#45;&gt;CliModule -->
<g id="edge18" class="edge">
<title>SeedUsersDatabase&#45;&gt;CliModule</title>
<path fill="none" stroke="black" d="M536,-331.11C536,-331.11 536,-349.99 536,-349.99"/>
<polygon fill="black" stroke="black" points="532.5,-349.99 536,-359.99 539.5,-349.99 532.5,-349.99"/>
</g>
<!-- ErrorFilterModule -->
<g id="node20" class="node">
<title>ErrorFilterModule</title>
<polygon fill="#8dd3c7" stroke="black" points="274.91,-331 271.91,-335 250.91,-335 247.91,-331 155.09,-331 155.09,-295 274.91,-295 274.91,-331"/>
<text text-anchor="middle" x="215" y="-308.8" font-family="Times,serif" font-size="14.00">ErrorFilterModule</text>
</g>
<!-- ErrorFilterModule&#45;&gt;CommonModules -->
<g id="edge20" class="edge">
<title>ErrorFilterModule&#45;&gt;CommonModules</title>
<path fill="none" stroke="black" d="M217.58,-331.11C217.58,-331.11 217.58,-349.99 217.58,-349.99"/>
<polygon fill="black" stroke="black" points="214.08,-349.99 217.58,-359.99 221.08,-349.99 214.08,-349.99"/>
</g>
<!-- ResponseModule -->
<g id="node21" class="node">
<title>ResponseModule</title>
<polygon fill="#8dd3c7" stroke="black" points="137.7,-331 134.7,-335 113.7,-335 110.7,-331 24.3,-331 24.3,-295 137.7,-295 137.7,-331"/>
<text text-anchor="middle" x="81" y="-308.8" font-family="Times,serif" font-size="14.00">ResponseModule</text>
</g>
<!-- ResponseModule&#45;&gt;CommonModules -->
<g id="edge21" class="edge">
<title>ResponseModule&#45;&gt;CommonModules</title>
<path fill="none" stroke="black" d="M81,-331.11C81,-350.34 81,-378 81,-378 81,-378 150.08,-378 150.08,-378"/>
<polygon fill="black" stroke="black" points="150.08,-381.5 160.08,-378 150.08,-374.5 150.08,-381.5"/>
</g>
<!-- PublicRouteModules&#45;&gt;RouterModule -->
<g id="edge29" class="edge">
<title>PublicRouteModules&#45;&gt;RouterModule</title>
<path fill="none" stroke="black" d="M3047,-331.28C3047,-352.32 3047,-384 3047,-384 3047,-384 952.76,-384 952.76,-384"/>
<polygon fill="black" stroke="black" points="952.76,-380.5 942.76,-384 952.76,-387.5 952.76,-380.5"/>
</g>
<!-- RolesService -->
<g id="node24" class="node">
<title>RolesService</title>
<ellipse fill="#fdb462" stroke="black" cx="1037" cy="-313" rx="61.97" ry="18"/>
<text text-anchor="middle" x="1037" y="-308.8" font-family="Times,serif" font-size="14.00">RolesService</text>
</g>
<!-- RolesService&#45;&gt;RolesModule -->
<g id="edge26" class="edge">
<title>RolesService&#45;&gt;RolesModule</title>
<path fill="none" stroke="black" d="M1037,-294.8C1037,-270.64 1037,-231 1037,-231 1037,-231 1247.27,-231 1247.27,-231"/>
<polygon fill="black" stroke="black" points="1247.27,-234.5 1257.27,-231 1247.27,-227.5 1247.27,-234.5"/>
</g>
<!-- NestRouter -->
<g id="node25" class="node">
<title>NestRouter</title>
<polygon fill="#8dd3c7" stroke="black" points="933.76,-331 930.76,-335 909.76,-335 906.76,-331 854.24,-331 854.24,-295 933.76,-295 933.76,-331"/>
<text text-anchor="middle" x="894" y="-308.8" font-family="Times,serif" font-size="14.00">NestRouter</text>
</g>
<!-- NestRouter&#45;&gt;RouterModule -->
<g id="edge28" class="edge">
<title>NestRouter&#45;&gt;RouterModule</title>
<path fill="none" stroke="black" d="M894,-331.11C894,-331.11 894,-349.99 894,-349.99"/>
<polygon fill="black" stroke="black" points="890.5,-349.99 894,-359.99 897.5,-349.99 890.5,-349.99"/>
</g>
<!-- TodosServiceAdmin -->
<g id="node28" class="node">
<title>TodosServiceAdmin</title>
<ellipse fill="#fdb462" stroke="black" cx="1706" cy="-237" rx="90.91" ry="18"/>
<text text-anchor="middle" x="1706" y="-232.8" font-family="Times,serif" font-size="14.00">TodosServiceAdmin</text>
</g>
<!-- TodosServiceAdmin&#45;&gt;TodosModule -->
<g id="edge32" class="edge">
<title>TodosServiceAdmin&#45;&gt;TodosModule</title>
<path fill="none" stroke="black" d="M1706,-218.89C1706,-199.66 1706,-172 1706,-172 1706,-172 2953.78,-172 2953.78,-172"/>
<polygon fill="black" stroke="black" points="2953.78,-175.5 2963.78,-172 2953.78,-168.5 2953.78,-175.5"/>
</g>
<!-- TodosServicePublic -->
<g id="node29" class="node">
<title>TodosServicePublic</title>
<ellipse fill="#fdb462" stroke="black" cx="1508" cy="-237" rx="88.62" ry="18"/>
<text text-anchor="middle" x="1508" y="-232.8" font-family="Times,serif" font-size="14.00">TodosServicePublic</text>
</g>
<!-- TodosServicePublic&#45;&gt;TodosModule -->
<g id="edge33" class="edge">
<title>TodosServicePublic&#45;&gt;TodosModule</title>
<path fill="none" stroke="black" d="M1508,-218.72C1508,-197.68 1508,-166 1508,-166 1508,-166 2953.54,-166 2953.54,-166"/>
<polygon fill="black" stroke="black" points="2953.54,-169.5 2963.54,-166 2953.54,-162.5 2953.54,-169.5"/>
</g>
<!-- UsersServiceAdmin -->
<g id="node32" class="node">
<title>UsersServiceAdmin</title>
<ellipse fill="#fdb462" stroke="black" cx="2427" cy="-237" rx="88.6" ry="18"/>
<text text-anchor="middle" x="2427" y="-232.8" font-family="Times,serif" font-size="14.00">UsersServiceAdmin</text>
</g>
<!-- UsersServiceAdmin&#45;&gt;UsersModule -->
<g id="edge36" class="edge">
<title>UsersServiceAdmin&#45;&gt;UsersModule</title>
<path fill="none" stroke="black" d="M2427,-218.76C2427,-211.57 2427,-205 2427,-205 2427,-205 3085.74,-205 3085.74,-205 3085.74,-205 3085.74,-200.04 3085.74,-200.04"/>
<polygon fill="black" stroke="black" points="3089.24,-200.04 3085.74,-190.04 3082.24,-200.04 3089.24,-200.04"/>
</g>
<!-- UsersServicePublic -->
<g id="node33" class="node">
<title>UsersServicePublic</title>
<ellipse fill="#fdb462" stroke="black" cx="2234" cy="-237" rx="86.81" ry="18"/>
<text text-anchor="middle" x="2234" y="-232.8" font-family="Times,serif" font-size="14.00">UsersServicePublic</text>
</g>
<!-- UsersServicePublic&#45;&gt;UsersModule -->
<g id="edge37" class="edge">
<title>UsersServicePublic&#45;&gt;UsersModule</title>
<path fill="none" stroke="black" d="M2234,-218.93C2234,-209.54 2234,-200 2234,-200 2234,-200 3081.02,-200 3081.02,-200 3081.02,-200 3081.02,-199.02 3081.02,-199.02"/>
<polygon fill="black" stroke="black" points="3084.52,-200.21 3081.02,-190.21 3077.52,-200.21 3084.52,-200.21"/>
</g>
</g>
</svg>
