<?xml version="1.0" encoding="UTF-8" standalone="no"?>
<!DOCTYPE svg PUBLIC "-//W3C//DTD SVG 1.1//EN"
 "http://www.w3.org/Graphics/SVG/1.1/DTD/svg11.dtd">
<!-- Generated by graphviz version 2.47.0 (20210316.0004)
 -->
<!-- Title: dependencies Pages: 1 -->
<svg width="3674pt" height="499pt"
 viewBox="0.00 0.00 3674.00 499.00" xmlns="http://www.w3.org/2000/svg" xmlns:xlink="http://www.w3.org/1999/xlink">
<g id="graph0" class="graph" transform="scale(1 1) rotate(0) translate(4 495)">
<title>dependencies</title>
<polygon fill="white" stroke="transparent" points="-4,4 -4,-495 3670,-495 3670,4 -4,4"/>
<text text-anchor="start" x="1812.01" y="-42.4" font-family="Times-12" font-weight="bold" font-size="14.00">Legend</text>
<polygon fill="#ffffb3" stroke="transparent" points="1599,-10 1599,-30 1619,-30 1619,-10 1599,-10"/>
<text text-anchor="start" x="1622.63" y="-15.4" font-family="Times-12" font-size="14.00"> &#160;Declarations</text>
<polygon fill="#8dd3c7" stroke="transparent" points="1712,-10 1712,-30 1732,-30 1732,-10 1712,-10"/>
<text text-anchor="start" x="1735.73" y="-15.4" font-family="Times-12" font-size="14.00"> &#160;Module</text>
<polygon fill="#80b1d3" stroke="transparent" points="1798,-10 1798,-30 1818,-30 1818,-10 1798,-10"/>
<text text-anchor="start" x="1821.78" y="-15.4" font-family="Times-12" font-size="14.00"> &#160;Bootstrap</text>
<polygon fill="#fdb462" stroke="transparent" points="1895,-10 1895,-30 1915,-30 1915,-10 1895,-10"/>
<text text-anchor="start" x="1918.67" y="-15.4" font-family="Times-12" font-size="14.00"> &#160;Providers</text>
<polygon fill="#fb8072" stroke="transparent" points="1991,-10 1991,-30 2011,-30 2011,-10 1991,-10"/>
<text text-anchor="start" x="2014.73" y="-15.4" font-family="Times-12" font-size="14.00"> &#160;Exports</text>
<g id="clust7" class="cluster">
<title>cluster_AdminsModule</title>
<polygon fill="none" stroke="black" stroke-dasharray="1,5" points="8,-70 8,-274 234,-274 234,-70 8,-70"/>
</g>
<g id="clust12" class="cluster">
<title>cluster_AdminsModule_providers</title>
<polygon fill="none" stroke="black" points="16,-78 16,-130 226,-130 226,-78 16,-78"/>
</g>
<g id="clust10" class="cluster">
<title>cluster_AdminsModule_exports</title>
<polygon fill="none" stroke="black" points="66,-214 66,-266 226,-266 226,-214 66,-214"/>
</g>
<g id="clust19" class="cluster">
<title>cluster_AuthModule</title>
<polygon fill="none" stroke="black" stroke-dasharray="1,5" points="242,-138 242,-350 748,-350 748,-138 242,-138"/>
</g>
<g id="clust21" class="cluster">
<title>cluster_AuthModule_imports</title>
<polygon fill="none" stroke="black" points="632,-146 632,-198 740,-198 740,-146 632,-146"/>
</g>
<g id="clust22" class="cluster">
<title>cluster_AuthModule_exports</title>
<polygon fill="none" stroke="black" points="404,-290 404,-342 692,-342 692,-290 404,-290"/>
</g>
<g id="clust24" class="cluster">
<title>cluster_AuthModule_providers</title>
<polygon fill="none" stroke="black" points="250,-146 250,-198 624,-198 624,-146 250,-146"/>
</g>
<g id="clust31" class="cluster">
<title>cluster_CommonModules</title>
<polygon fill="none" stroke="black" stroke-dasharray="1,5" points="1833,-282 1833,-418 2244,-418 2244,-282 1833,-282"/>
</g>
<g id="clust33" class="cluster">
<title>cluster_CommonModules_imports</title>
<polygon fill="none" stroke="black" points="1841,-290 1841,-342 2236,-342 2236,-290 1841,-290"/>
</g>
<g id="clust1" class="cluster">
<title>cluster_AdminRouteModules</title>
<polygon fill="none" stroke="black" stroke-dasharray="1,5" points="1469,-206 1469,-342 1705,-342 1705,-206 1469,-206"/>
</g>
<g id="clust3" class="cluster">
<title>cluster_AdminRouteModules_imports</title>
<polygon fill="none" stroke="black" points="1477,-214 1477,-266 1697,-266 1697,-214 1477,-214"/>
</g>
<g id="clust13" class="cluster">
<title>cluster_AppModule</title>
<polygon fill="none" stroke="black" stroke-dasharray="1,5" points="1588,-358 1588,-483 1718,-483 1718,-358 1588,-358"/>
</g>
<g id="clust15" class="cluster">
<title>cluster_AppModule_imports</title>
<polygon fill="none" stroke="black" points="1596,-366 1596,-418 1710,-418 1710,-366 1596,-366"/>
</g>
<g id="clust49" class="cluster">
<title>cluster_PublicRouteModules</title>
<polygon fill="none" stroke="black" stroke-dasharray="1,5" points="1034,-290 1034,-342 1184,-342 1184,-290 1034,-290"/>
</g>
<g id="clust61" class="cluster">
<title>cluster_RolesModule</title>
<polygon fill="none" stroke="black" stroke-dasharray="1,5" points="2656,-282 2656,-350 2930,-350 2930,-282 2656,-282"/>
</g>
<g id="clust64" class="cluster">
<title>cluster_RolesModule_exports</title>
<polygon fill="none" stroke="black" points="2812,-290 2812,-342 2922,-342 2922,-290 2812,-290"/>
</g>
<g id="clust66" class="cluster">
<title>cluster_RolesModule_providers</title>
<polygon fill="none" stroke="black" points="2664,-290 2664,-342 2804,-342 2804,-290 2664,-290"/>
</g>
<g id="clust67" class="cluster">
<title>cluster_RouterModule</title>
<polygon fill="none" stroke="black" stroke-dasharray="1,5" points="1713,-282 1713,-350 1825,-350 1825,-282 1713,-282"/>
</g>
<g id="clust69" class="cluster">
<title>cluster_RouterModule_imports</title>
<polygon fill="none" stroke="black" points="1721,-290 1721,-342 1817,-342 1817,-290 1721,-290"/>
</g>
<g id="clust73" class="cluster">
<title>cluster_TodosModule</title>
<polygon fill="none" stroke="black" stroke-dasharray="1,5" points="2938,-282 2938,-350 3658,-350 3658,-282 2938,-282"/>
</g>
<g id="clust76" class="cluster">
<title>cluster_TodosModule_exports</title>
<polygon fill="none" stroke="black" points="3348,-290 3348,-342 3650,-342 3650,-290 3348,-290"/>
</g>
<g id="clust78" class="cluster">
<title>cluster_TodosModule_providers</title>
<polygon fill="none" stroke="black" points="2946,-290 2946,-342 3340,-342 3340,-290 2946,-290"/>
</g>
<g id="clust25" class="cluster">
<title>cluster_CliModule</title>
<polygon fill="none" stroke="black" stroke-dasharray="1,5" points="2252,-282 2252,-418 2648,-418 2648,-282 2252,-282"/>
</g>
<g id="clust30" class="cluster">
<title>cluster_CliModule_providers</title>
<polygon fill="none" stroke="black" points="2260,-290 2260,-342 2640,-342 2640,-290 2260,-290"/>
</g>
<g id="clust79" class="cluster">
<title>cluster_UsersModule</title>
<polygon fill="none" stroke="black" stroke-dasharray="1,5" points="756,-206 756,-274 1461,-274 1461,-206 756,-206"/>
</g>
<g id="clust82" class="cluster">
<title>cluster_UsersModule_exports</title>
<polygon fill="none" stroke="black" points="1157,-214 1157,-266 1453,-266 1453,-214 1157,-214"/>
</g>
<g id="clust84" class="cluster">
<title>cluster_UsersModule_providers</title>
<polygon fill="none" stroke="black" points="764,-214 764,-266 1149,-266 1149,-214 764,-214"/>
</g>
<!-- AdminsModule -->
<g id="node1" class="node">
<title>AdminsModule</title>
<polygon fill="#8dd3c7" stroke="black" points="184.88,-190 181.88,-194 160.88,-194 157.88,-190 81.12,-190 81.12,-154 184.88,-154 184.88,-190"/>
<text text-anchor="middle" x="133" y="-167.8" font-family="Times,serif" font-size="14.00">AdminsModule</text>
</g>
<!-- AuthModule -->
<g id="node2" class="node">
<title>AuthModule</title>
<polygon fill="#8dd3c7" stroke="black" points="615.55,-258 612.55,-262 591.55,-262 588.55,-258 528.45,-258 528.45,-222 615.55,-222 615.55,-258"/>
<text text-anchor="middle" x="572" y="-235.8" font-family="Times,serif" font-size="14.00">AuthModule</text>
</g>
<!-- AdminsModule&#45;&gt;AuthModule -->
<g id="edge10" class="edge">
<title>AdminsModule&#45;&gt;AuthModule</title>
<path fill="none" stroke="black" d="M184.99,-172C211.49,-172 238.21,-172 238.21,-172 238.21,-172 238.21,-246 238.21,-246 238.21,-246 518.36,-246 518.36,-246"/>
<polygon fill="black" stroke="black" points="518.36,-249.5 528.36,-246 518.36,-242.5 518.36,-249.5"/>
</g>
<!-- AdminRouteModules -->
<g id="node6" class="node">
<title>AdminRouteModules</title>
<polygon fill="#8dd3c7" stroke="black" points="1614.82,-334 1611.82,-338 1590.82,-338 1587.82,-334 1477.18,-334 1477.18,-298 1614.82,-298 1614.82,-334"/>
<text text-anchor="middle" x="1546" y="-311.8" font-family="Times,serif" font-size="14.00">AdminRouteModules</text>
</g>
<!-- AdminsModule&#45;&gt;AdminRouteModules -->
<g id="edge1" class="edge">
<title>AdminsModule&#45;&gt;AdminRouteModules</title>
<path fill="none" stroke="black" d="M150.31,-190.19C150.31,-198.28 150.31,-206 150.31,-206 150.31,-206 1481.31,-206 1481.31,-206 1481.31,-206 1481.31,-287.84 1481.31,-287.84"/>
<polygon fill="black" stroke="black" points="1477.81,-287.84 1481.31,-297.84 1484.81,-287.84 1477.81,-287.84"/>
</g>
<!-- AdminsServiceAdmin  -->
<g id="node7" class="node">
<title>AdminsServiceAdmin </title>
<polygon fill="#fb8072" stroke="black" points="218.2,-258 73.8,-258 73.8,-222 218.2,-222 218.2,-258"/>
<text text-anchor="middle" x="146" y="-235.8" font-family="Times,serif" font-size="14.00">AdminsServiceAdmin </text>
</g>
<!-- AdminsModule&#45;&gt;AdminsServiceAdmin  -->
<g id="edge6" class="edge">
<title>AdminsModule&#45;&gt;AdminsServiceAdmin </title>
<path fill="none" stroke="black" stroke-dasharray="5,2" d="M115.69,-190.22C115.69,-190.22 115.69,-211.73 115.69,-211.73"/>
<polygon fill="black" stroke="black" points="112.19,-211.73 115.69,-221.73 119.19,-211.73 112.19,-211.73"/>
</g>
<!-- AuthModule&#45;&gt;AdminRouteModules -->
<g id="edge2" class="edge">
<title>AuthModule&#45;&gt;AdminRouteModules</title>
<path fill="none" stroke="black" d="M595.79,-258.06C595.79,-269.44 595.79,-282 595.79,-282 595.79,-282 1479.32,-282 1479.32,-282 1479.32,-282 1479.32,-287.81 1479.32,-287.81"/>
<polygon fill="black" stroke="black" points="1475.82,-287.81 1479.32,-297.81 1482.82,-287.81 1475.82,-287.81"/>
</g>
<!-- AuthServiceAdmin  -->
<g id="node12" class="node">
<title>AuthServiceAdmin </title>
<polygon fill="#fb8072" stroke="black" points="684.36,-334 555.64,-334 555.64,-298 684.36,-298 684.36,-334"/>
<text text-anchor="middle" x="620" y="-311.8" font-family="Times,serif" font-size="14.00">AuthServiceAdmin </text>
</g>
<!-- AuthModule&#45;&gt;AuthServiceAdmin  -->
<g id="edge12" class="edge">
<title>AuthModule&#45;&gt;AuthServiceAdmin </title>
<path fill="none" stroke="black" stroke-dasharray="5,2" d="M575.8,-258.01C575.8,-258.01 575.8,-287.85 575.8,-287.85"/>
<polygon fill="black" stroke="black" points="572.3,-287.85 575.8,-297.85 579.3,-287.85 572.3,-287.85"/>
</g>
<!-- AuthServicePublic  -->
<g id="node13" class="node">
<title>AuthServicePublic </title>
<polygon fill="#fb8072" stroke="black" points="537.75,-334 412.25,-334 412.25,-298 537.75,-298 537.75,-334"/>
<text text-anchor="middle" x="475" y="-311.8" font-family="Times,serif" font-size="14.00">AuthServicePublic </text>
</g>
<!-- AuthModule&#45;&gt;AuthServicePublic  -->
<g id="edge13" class="edge">
<title>AuthModule&#45;&gt;AuthServicePublic </title>
<path fill="none" stroke="black" stroke-dasharray="5,2" d="M532.93,-258.01C532.93,-258.01 532.93,-287.85 532.93,-287.85"/>
<polygon fill="black" stroke="black" points="529.43,-287.85 532.93,-297.85 536.43,-287.85 529.43,-287.85"/>
</g>
<!-- PublicRouteModules -->
<g id="node22" class="node">
<title>PublicRouteModules</title>
<polygon fill="#8dd3c7" stroke="black" points="1176.21,-334 1173.21,-338 1152.21,-338 1149.21,-334 1041.79,-334 1041.79,-298 1176.21,-298 1176.21,-334"/>
<text text-anchor="middle" x="1109" y="-311.8" font-family="Times,serif" font-size="14.00">PublicRouteModules</text>
</g>
<!-- AuthModule&#45;&gt;PublicRouteModules -->
<g id="edge22" class="edge">
<title>AuthModule&#45;&gt;PublicRouteModules</title>
<path fill="none" stroke="black" d="M615.74,-249C651.46,-249 696.06,-249 696.06,-249 696.06,-249 696.06,-322 696.06,-322 696.06,-322 1031.74,-322 1031.74,-322"/>
<polygon fill="black" stroke="black" points="1031.74,-325.5 1041.74,-322 1031.74,-318.5 1031.74,-325.5"/>
</g>
<!-- RolesModule -->
<g id="node3" class="node">
<title>RolesModule</title>
<polygon fill="#8dd3c7" stroke="black" points="1576.94,-258 1573.94,-262 1552.94,-262 1549.94,-258 1485.06,-258 1485.06,-222 1576.94,-222 1576.94,-258"/>
<text text-anchor="middle" x="1531" y="-235.8" font-family="Times,serif" font-size="14.00">RolesModule</text>
</g>
<!-- RolesModule&#45;&gt;AdminRouteModules -->
<g id="edge3" class="edge">
<title>RolesModule&#45;&gt;AdminRouteModules</title>
<path fill="none" stroke="black" d="M1508.14,-258.01C1508.14,-258.01 1508.14,-287.85 1508.14,-287.85"/>
<polygon fill="black" stroke="black" points="1504.64,-287.85 1508.14,-297.85 1511.64,-287.85 1504.64,-287.85"/>
</g>
<!-- RolesService  -->
<g id="node23" class="node">
<title>RolesService </title>
<polygon fill="#fb8072" stroke="black" points="2913.86,-334 2820.14,-334 2820.14,-298 2913.86,-298 2913.86,-334"/>
<text text-anchor="middle" x="2867" y="-311.8" font-family="Times,serif" font-size="14.00">RolesService </text>
</g>
<!-- RolesModule&#45;&gt;RolesService  -->
<g id="edge25" class="edge">
<title>RolesModule&#45;&gt;RolesService </title>
<path fill="none" stroke="black" stroke-dasharray="5,2" d="M1531,-258.06C1531,-262.49 1531,-266 1531,-266 1531,-266 2867,-266 2867,-266 2867,-266 2867,-287.95 2867,-287.95"/>
<polygon fill="black" stroke="black" points="2863.5,-287.95 2867,-297.95 2870.5,-287.95 2863.5,-287.95"/>
</g>
<!-- TodosModule -->
<g id="node4" class="node">
<title>TodosModule</title>
<polygon fill="#8dd3c7" stroke="black" points="1689.05,-258 1686.05,-262 1665.05,-262 1662.05,-258 1594.95,-258 1594.95,-222 1689.05,-222 1689.05,-258"/>
<text text-anchor="middle" x="1642" y="-235.8" font-family="Times,serif" font-size="14.00">TodosModule</text>
</g>
<!-- TodosModule&#45;&gt;AdminRouteModules -->
<g id="edge4" class="edge">
<title>TodosModule&#45;&gt;AdminRouteModules</title>
<path fill="none" stroke="black" d="M1608.02,-258.01C1608.02,-258.01 1608.02,-287.85 1608.02,-287.85"/>
<polygon fill="black" stroke="black" points="1604.52,-287.85 1608.02,-297.85 1611.52,-287.85 1604.52,-287.85"/>
</g>
<!-- TodosModule&#45;&gt;PublicRouteModules -->
<g id="edge23" class="edge">
<title>TodosModule&#45;&gt;PublicRouteModules</title>
<path fill="none" stroke="black" d="M1601.37,-258.05C1601.37,-272.37 1601.37,-290 1601.37,-290 1601.37,-290 1170.49,-290 1170.49,-290 1170.49,-290 1170.49,-290.79 1170.49,-290.79"/>
<polygon fill="black" stroke="black" points="1166.99,-287.94 1170.49,-297.94 1173.99,-287.94 1166.99,-287.94"/>
</g>
<!-- TodosServiceAdmin  -->
<g id="node26" class="node">
<title>TodosServiceAdmin </title>
<polygon fill="#fb8072" stroke="black" points="3641.86,-334 3506.14,-334 3506.14,-298 3641.86,-298 3641.86,-334"/>
<text text-anchor="middle" x="3574" y="-311.8" font-family="Times,serif" font-size="14.00">TodosServiceAdmin </text>
</g>
<!-- TodosModule&#45;&gt;TodosServiceAdmin  -->
<g id="edge30" class="edge">
<title>TodosModule&#45;&gt;TodosServiceAdmin </title>
<path fill="none" stroke="black" stroke-dasharray="5,2" d="M1689.28,-230C1985.56,-230 3574,-230 3574,-230 3574,-230 3574,-287.76 3574,-287.76"/>
<polygon fill="black" stroke="black" points="3570.5,-287.76 3574,-297.76 3577.5,-287.76 3570.5,-287.76"/>
</g>
<!-- TodosServicePublic  -->
<g id="node27" class="node">
<title>TodosServicePublic </title>
<polygon fill="#fb8072" stroke="black" points="3488.25,-334 3355.75,-334 3355.75,-298 3488.25,-298 3488.25,-334"/>
<text text-anchor="middle" x="3422" y="-311.8" font-family="Times,serif" font-size="14.00">TodosServicePublic </text>
</g>
<!-- TodosModule&#45;&gt;TodosServicePublic  -->
<g id="edge31" class="edge">
<title>TodosModule&#45;&gt;TodosServicePublic </title>
<path fill="none" stroke="black" stroke-dasharray="5,2" d="M1689.15,-237C1971.11,-237 3422,-237 3422,-237 3422,-237 3422,-287.68 3422,-287.68"/>
<polygon fill="black" stroke="black" points="3418.5,-287.68 3422,-297.68 3425.5,-287.68 3418.5,-287.68"/>
</g>
<!-- UsersModule -->
<g id="node5" class="node">
<title>UsersModule</title>
<polygon fill="#8dd3c7" stroke="black" points="731.92,-190 728.92,-194 707.92,-194 704.92,-190 640.08,-190 640.08,-154 731.92,-154 731.92,-190"/>
<text text-anchor="middle" x="686" y="-167.8" font-family="Times,serif" font-size="14.00">UsersModule</text>
</g>
<!-- UsersModule&#45;&gt;AuthModule -->
<g id="edge11" class="edge">
<title>UsersModule&#45;&gt;AuthModule</title>
<path fill="none" stroke="black" d="M662.24,-190.22C662.24,-210.37 662.24,-240 662.24,-240 662.24,-240 625.8,-240 625.8,-240"/>
<polygon fill="black" stroke="black" points="625.8,-236.5 615.8,-240 625.8,-243.5 625.8,-236.5"/>
</g>
<!-- UsersModule&#45;&gt;AdminRouteModules -->
<g id="edge5" class="edge">
<title>UsersModule&#45;&gt;AdminRouteModules</title>
<path fill="none" stroke="black" d="M731.73,-162C901.14,-162 1483.3,-162 1483.3,-162 1483.3,-162 1483.3,-287.73 1483.3,-287.73"/>
<polygon fill="black" stroke="black" points="1479.8,-287.73 1483.3,-297.73 1486.8,-287.73 1479.8,-287.73"/>
</g>
<!-- UsersModule&#45;&gt;PublicRouteModules -->
<g id="edge24" class="edge">
<title>UsersModule&#45;&gt;PublicRouteModules</title>
<path fill="none" stroke="black" d="M707.95,-190.04C707.95,-227.45 707.95,-310 707.95,-310 707.95,-310 1031.87,-310 1031.87,-310"/>
<polygon fill="black" stroke="black" points="1031.87,-313.5 1041.87,-310 1031.87,-306.5 1031.87,-313.5"/>
</g>
<!-- UsersServiceAdmin  -->
<g id="node30" class="node">
<title>UsersServiceAdmin </title>
<polygon fill="#fb8072" stroke="black" points="1297.24,-258 1164.76,-258 1164.76,-222 1297.24,-222 1297.24,-258"/>
<text text-anchor="middle" x="1231" y="-235.8" font-family="Times,serif" font-size="14.00">UsersServiceAdmin </text>
</g>
<!-- UsersModule&#45;&gt;UsersServiceAdmin  -->
<g id="edge34" class="edge">
<title>UsersModule&#45;&gt;UsersServiceAdmin </title>
<path fill="none" stroke="black" stroke-dasharray="5,2" d="M732,-176C863.39,-176 1231,-176 1231,-176 1231,-176 1231,-211.83 1231,-211.83"/>
<polygon fill="black" stroke="black" points="1227.5,-211.83 1231,-221.83 1234.5,-211.83 1227.5,-211.83"/>
</g>
<!-- UsersServicePublic  -->
<g id="node31" class="node">
<title>UsersServicePublic </title>
<polygon fill="#fb8072" stroke="black" points="1444.63,-258 1315.37,-258 1315.37,-222 1444.63,-222 1444.63,-258"/>
<text text-anchor="middle" x="1380" y="-235.8" font-family="Times,serif" font-size="14.00">UsersServicePublic </text>
</g>
<!-- UsersModule&#45;&gt;UsersServicePublic  -->
<g id="edge35" class="edge">
<title>UsersModule&#45;&gt;UsersServicePublic </title>
<path fill="none" stroke="black" stroke-dasharray="5,2" d="M731.8,-169C886.5,-169 1380,-169 1380,-169 1380,-169 1380,-211.72 1380,-211.72"/>
<polygon fill="black" stroke="black" points="1376.5,-211.72 1380,-221.72 1383.5,-211.72 1376.5,-211.72"/>
</g>
<!-- RouterModule -->
<g id="node10" class="node">
<title>RouterModule</title>
<polygon fill="#8dd3c7" stroke="black" points="1701.65,-410 1698.65,-414 1677.65,-414 1674.65,-410 1604.35,-410 1604.35,-374 1701.65,-374 1701.65,-410"/>
<text text-anchor="middle" x="1653" y="-387.8" font-family="Times,serif" font-size="14.00">RouterModule</text>
</g>
<!-- AdminRouteModules&#45;&gt;RouterModule -->
<g id="edge27" class="edge">
<title>AdminRouteModules&#45;&gt;RouterModule</title>
<path fill="none" stroke="black" d="M1609.42,-334.01C1609.42,-334.01 1609.42,-363.85 1609.42,-363.85"/>
<polygon fill="black" stroke="black" points="1605.92,-363.85 1609.42,-373.85 1612.92,-363.85 1605.92,-363.85"/>
</g>
<!-- AdminsServiceAdmin -->
<g id="node8" class="node">
<title>AdminsServiceAdmin</title>
<ellipse fill="#fdb462" stroke="black" cx="121" cy="-104" rx="97.29" ry="18"/>
<text text-anchor="middle" x="121" y="-99.8" font-family="Times,serif" font-size="14.00">AdminsServiceAdmin</text>
</g>
<!-- AdminsServiceAdmin&#45;&gt;AdminsModule -->
<g id="edge7" class="edge">
<title>AdminsServiceAdmin&#45;&gt;AdminsModule</title>
<path fill="none" stroke="black" d="M133,-121.87C133,-121.87 133,-143.54 133,-143.54"/>
<polygon fill="black" stroke="black" points="129.5,-143.54 133,-153.54 136.5,-143.54 129.5,-143.54"/>
</g>
<!-- CommonModules -->
<g id="node9" class="node">
<title>CommonModules</title>
<polygon fill="#8dd3c7" stroke="black" points="2031.61,-410 2028.61,-414 2007.61,-414 2004.61,-410 1914.39,-410 1914.39,-374 2031.61,-374 2031.61,-410"/>
<text text-anchor="middle" x="1973" y="-387.8" font-family="Times,serif" font-size="14.00">CommonModules</text>
</g>
<!-- AppModule -->
<g id="node11" class="node">
<title>AppModule</title>
<polygon fill="#8dd3c7" stroke="black" points="1701.66,-475 1698.66,-479 1677.66,-479 1674.66,-475 1618.34,-475 1618.34,-439 1701.66,-439 1701.66,-475"/>
<text text-anchor="middle" x="1660" y="-452.8" font-family="Times,serif" font-size="14.00">AppModule</text>
</g>
<!-- CommonModules&#45;&gt;AppModule -->
<g id="edge8" class="edge">
<title>CommonModules&#45;&gt;AppModule</title>
<path fill="none" stroke="black" d="M1973,-410.11C1973,-429.34 1973,-457 1973,-457 1973,-457 1711.89,-457 1711.89,-457"/>
<polygon fill="black" stroke="black" points="1711.89,-453.5 1701.89,-457 1711.89,-460.5 1711.89,-453.5"/>
</g>
<!-- RouterModule&#45;&gt;AppModule -->
<g id="edge9" class="edge">
<title>RouterModule&#45;&gt;AppModule</title>
<path fill="none" stroke="black" d="M1660,-410.11C1660,-410.11 1660,-428.99 1660,-428.99"/>
<polygon fill="black" stroke="black" points="1656.5,-428.99 1660,-438.99 1663.5,-428.99 1656.5,-428.99"/>
</g>
<!-- AuthServiceAdmin -->
<g id="node14" class="node">
<title>AuthServiceAdmin</title>
<ellipse fill="#fdb462" stroke="black" cx="530" cy="-172" rx="86.26" ry="18"/>
<text text-anchor="middle" x="530" y="-167.8" font-family="Times,serif" font-size="14.00">AuthServiceAdmin</text>
</g>
<!-- AuthServiceAdmin&#45;&gt;AuthModule -->
<g id="edge14" class="edge">
<title>AuthServiceAdmin&#45;&gt;AuthModule</title>
<path fill="none" stroke="black" d="M572,-187.77C572,-187.77 572,-211.91 572,-211.91"/>
<polygon fill="black" stroke="black" points="568.5,-211.91 572,-221.91 575.5,-211.91 568.5,-211.91"/>
</g>
<!-- AuthServicePublic -->
<g id="node15" class="node">
<title>AuthServicePublic</title>
<ellipse fill="#fdb462" stroke="black" cx="342" cy="-172" rx="83.97" ry="18"/>
<text text-anchor="middle" x="342" y="-167.8" font-family="Times,serif" font-size="14.00">AuthServicePublic</text>
</g>
<!-- AuthServicePublic&#45;&gt;AuthModule -->
<g id="edge15" class="edge">
<title>AuthServicePublic&#45;&gt;AuthModule</title>
<path fill="none" stroke="black" d="M419.18,-179.11C419.18,-195.4 419.18,-234 419.18,-234 419.18,-234 518.21,-234 518.21,-234"/>
<polygon fill="black" stroke="black" points="518.21,-237.5 528.21,-234 518.21,-230.5 518.21,-237.5"/>
</g>
<!-- DatabaseModule -->
<g id="node16" class="node">
<title>DatabaseModule</title>
<polygon fill="#8dd3c7" stroke="black" points="2228.35,-334 2225.35,-338 2204.35,-338 2201.35,-334 2117.65,-334 2117.65,-298 2228.35,-298 2228.35,-334"/>
<text text-anchor="middle" x="2173" y="-311.8" font-family="Times,serif" font-size="14.00">DatabaseModule</text>
</g>
<!-- DatabaseModule&#45;&gt;CommonModules -->
<g id="edge19" class="edge">
<title>DatabaseModule&#45;&gt;CommonModules</title>
<path fill="none" stroke="black" d="M2154.53,-334.03C2154.53,-354.77 2154.53,-386 2154.53,-386 2154.53,-386 2041.69,-386 2041.69,-386"/>
<polygon fill="black" stroke="black" points="2041.69,-382.5 2031.69,-386 2041.69,-389.5 2041.69,-382.5"/>
</g>
<!-- CliModule -->
<g id="node17" class="node">
<title>CliModule</title>
<polygon fill="#8dd3c7" stroke="black" points="2393.17,-410 2390.17,-414 2369.17,-414 2366.17,-410 2316.83,-410 2316.83,-374 2393.17,-374 2393.17,-410"/>
<text text-anchor="middle" x="2355" y="-387.8" font-family="Times,serif" font-size="14.00">CliModule</text>
</g>
<!-- DatabaseModule&#45;&gt;CliModule -->
<g id="edge16" class="edge">
<title>DatabaseModule&#45;&gt;CliModule</title>
<path fill="none" stroke="black" d="M2191.47,-334.2C2191.47,-358.36 2191.47,-398 2191.47,-398 2191.47,-398 2306.66,-398 2306.66,-398"/>
<polygon fill="black" stroke="black" points="2306.66,-401.5 2316.66,-398 2306.66,-394.5 2306.66,-401.5"/>
</g>
<!-- SeedTodoDatabase -->
<g id="node18" class="node">
<title>SeedTodoDatabase</title>
<ellipse fill="#fdb462" stroke="black" cx="2546" cy="-316" rx="85.66" ry="18"/>
<text text-anchor="middle" x="2546" y="-311.8" font-family="Times,serif" font-size="14.00">SeedTodoDatabase</text>
</g>
<!-- SeedTodoDatabase&#45;&gt;CliModule -->
<g id="edge17" class="edge">
<title>SeedTodoDatabase&#45;&gt;CliModule</title>
<path fill="none" stroke="black" d="M2546,-334.01C2546,-356.49 2546,-392 2546,-392 2546,-392 2403.19,-392 2403.19,-392"/>
<polygon fill="black" stroke="black" points="2403.19,-388.5 2393.19,-392 2403.19,-395.5 2403.19,-388.5"/>
</g>
<!-- SeedUsersDatabase -->
<g id="node19" class="node">
<title>SeedUsersDatabase</title>
<ellipse fill="#fdb462" stroke="black" cx="2355" cy="-316" rx="87.35" ry="18"/>
<text text-anchor="middle" x="2355" y="-311.8" font-family="Times,serif" font-size="14.00">SeedUsersDatabase</text>
</g>
<!-- SeedUsersDatabase&#45;&gt;CliModule -->
<g id="edge18" class="edge">
<title>SeedUsersDatabase&#45;&gt;CliModule</title>
<path fill="none" stroke="black" d="M2355,-334.01C2355,-334.01 2355,-363.85 2355,-363.85"/>
<polygon fill="black" stroke="black" points="2351.5,-363.85 2355,-373.85 2358.5,-363.85 2351.5,-363.85"/>
</g>
<!-- ErrorFilterModule -->
<g id="node20" class="node">
<title>ErrorFilterModule</title>
<polygon fill="#8dd3c7" stroke="black" points="2099.91,-334 2096.91,-338 2075.91,-338 2072.91,-334 1980.09,-334 1980.09,-298 2099.91,-298 2099.91,-334"/>
<text text-anchor="middle" x="2040" y="-311.8" font-family="Times,serif" font-size="14.00">ErrorFilterModule</text>
</g>
<!-- ErrorFilterModule&#45;&gt;CommonModules -->
<g id="edge20" class="edge">
<title>ErrorFilterModule&#45;&gt;CommonModules</title>
<path fill="none" stroke="black" d="M2005.92,-334.01C2005.92,-334.01 2005.92,-363.85 2005.92,-363.85"/>
<polygon fill="black" stroke="black" points="2002.42,-363.85 2005.92,-373.85 2009.42,-363.85 2002.42,-363.85"/>
</g>
<!-- ResponseModule -->
<g id="node21" class="node">
<title>ResponseModule</title>
<polygon fill="#8dd3c7" stroke="black" points="1962.7,-334 1959.7,-338 1938.7,-338 1935.7,-334 1849.3,-334 1849.3,-298 1962.7,-298 1962.7,-334"/>
<text text-anchor="middle" x="1906" y="-311.8" font-family="Times,serif" font-size="14.00">ResponseModule</text>
</g>
<!-- ResponseModule&#45;&gt;CommonModules -->
<g id="edge21" class="edge">
<title>ResponseModule&#45;&gt;CommonModules</title>
<path fill="none" stroke="black" d="M1938.52,-334.01C1938.52,-334.01 1938.52,-363.85 1938.52,-363.85"/>
<polygon fill="black" stroke="black" points="1935.02,-363.85 1938.52,-373.85 1942.02,-363.85 1935.02,-363.85"/>
</g>
<!-- PublicRouteModules&#45;&gt;RouterModule -->
<g id="edge29" class="edge">
<title>PublicRouteModules&#45;&gt;RouterModule</title>
<path fill="none" stroke="black" d="M1109,-334.01C1109,-356.49 1109,-392 1109,-392 1109,-392 1594.24,-392 1594.24,-392"/>
<polygon fill="black" stroke="black" points="1594.24,-395.5 1604.24,-392 1594.24,-388.5 1594.24,-395.5"/>
</g>
<!-- RolesService -->
<g id="node24" class="node">
<title>RolesService</title>
<ellipse fill="#fdb462" stroke="black" cx="2734" cy="-316" rx="61.97" ry="18"/>
<text text-anchor="middle" x="2734" y="-311.8" font-family="Times,serif" font-size="14.00">RolesService</text>
</g>
<!-- RolesService&#45;&gt;RolesModule -->
<g id="edge26" class="edge">
<title>RolesService&#45;&gt;RolesModule</title>
<path fill="none" stroke="black" d="M2734,-297.94C2734,-286.56 2734,-274 2734,-274 2734,-274 1553.86,-274 1553.86,-274 1553.86,-274 1553.86,-268.19 1553.86,-268.19"/>
<polygon fill="black" stroke="black" points="1557.36,-268.19 1553.86,-258.19 1550.36,-268.19 1557.36,-268.19"/>
</g>
<!-- NestRouter -->
<g id="node25" class="node">
<title>NestRouter</title>
<polygon fill="#8dd3c7" stroke="black" points="1808.76,-334 1805.76,-338 1784.76,-338 1781.76,-334 1729.24,-334 1729.24,-298 1808.76,-298 1808.76,-334"/>
<text text-anchor="middle" x="1769" y="-311.8" font-family="Times,serif" font-size="14.00">NestRouter</text>
</g>
<!-- NestRouter&#45;&gt;RouterModule -->
<g id="edge28" class="edge">
<title>NestRouter&#45;&gt;RouterModule</title>
<path fill="none" stroke="black" d="M1728.84,-316C1711.69,-316 1695.55,-316 1695.55,-316 1695.55,-316 1695.55,-363.99 1695.55,-363.99"/>
<polygon fill="black" stroke="black" points="1692.05,-363.99 1695.55,-373.99 1699.05,-363.99 1692.05,-363.99"/>
</g>
<!-- TodosServiceAdmin -->
<g id="node28" class="node">
<title>TodosServiceAdmin</title>
<ellipse fill="#fdb462" stroke="black" cx="3241" cy="-316" rx="90.91" ry="18"/>
<text text-anchor="middle" x="3241" y="-311.8" font-family="Times,serif" font-size="14.00">TodosServiceAdmin</text>
</g>
<!-- TodosServiceAdmin&#45;&gt;TodosModule -->
<g id="edge32" class="edge">
<title>TodosServiceAdmin&#45;&gt;TodosModule</title>
<path fill="none" stroke="black" d="M3241,-297.83C3241,-276.5 3241,-244 3241,-244 3241,-244 1699.42,-244 1699.42,-244"/>
<polygon fill="black" stroke="black" points="1699.42,-240.5 1689.42,-244 1699.42,-247.5 1699.42,-240.5"/>
</g>
<!-- TodosServicePublic -->
<g id="node29" class="node">
<title>TodosServicePublic</title>
<ellipse fill="#fdb462" stroke="black" cx="3043" cy="-316" rx="88.62" ry="18"/>
<text text-anchor="middle" x="3043" y="-311.8" font-family="Times,serif" font-size="14.00">TodosServicePublic</text>
</g>
<!-- TodosServicePublic&#45;&gt;TodosModule -->
<g id="edge33" class="edge">
<title>TodosServicePublic&#45;&gt;TodosModule</title>
<path fill="none" stroke="black" d="M3043,-297.89C3043,-278.66 3043,-251 3043,-251 3043,-251 1699.42,-251 1699.42,-251"/>
<polygon fill="black" stroke="black" points="1699.42,-247.5 1689.42,-251 1699.42,-254.5 1699.42,-247.5"/>
</g>
<!-- UsersServiceAdmin -->
<g id="node32" class="node">
<title>UsersServiceAdmin</title>
<ellipse fill="#fdb462" stroke="black" cx="861" cy="-240" rx="88.6" ry="18"/>
<text text-anchor="middle" x="861" y="-235.8" font-family="Times,serif" font-size="14.00">UsersServiceAdmin</text>
</g>
<!-- UsersServiceAdmin&#45;&gt;UsersModule -->
<g id="edge36" class="edge">
<title>UsersServiceAdmin&#45;&gt;UsersModule</title>
<path fill="none" stroke="black" d="M783.81,-231C750.85,-231 719.83,-231 719.83,-231 719.83,-231 719.83,-200.02 719.83,-200.02"/>
<polygon fill="black" stroke="black" points="723.33,-200.02 719.83,-190.02 716.33,-200.02 723.33,-200.02"/>
</g>
<!-- UsersServicePublic -->
<g id="node33" class="node">
<title>UsersServicePublic</title>
<ellipse fill="#fdb462" stroke="black" cx="1054" cy="-240" rx="86.81" ry="18"/>
<text text-anchor="middle" x="1054" y="-235.8" font-family="Times,serif" font-size="14.00">UsersServicePublic</text>
</g>
<!-- UsersServicePublic&#45;&gt;UsersModule -->
<g id="edge37" class="edge">
<title>UsersServicePublic&#45;&gt;UsersModule</title>
<path fill="none" stroke="black" d="M1054,-221.96C1054,-205.27 1054,-183 1054,-183 1054,-183 741.86,-183 741.86,-183"/>
<polygon fill="black" stroke="black" points="741.86,-179.5 731.86,-183 741.86,-186.5 741.86,-179.5"/>
</g>
</g>
</svg>
